<svg width="102" height="206" viewBox="0 0 102 206" fill="none" xmlns="http://www.w3.org/2000/svg">
<rect width="102" height="206" fill="#F5F5F5"/>
<g id="Frame 65" clip-path="url(#clip0_184_57193)">
<rect width="375" height="812" transform="translate(-273 -386)" fill="white"/>
<g id="Greeting" clip-path="url(#clip1_184_57193)">
<rect width="375" height="812" transform="translate(-273 -386)" fill="#39B54A"/>
<g id="Frame" clip-path="url(#clip2_184_57193)">
<g id="Back">
</g>
</g>
<path id="Ellipse 117" d="M195 103C195 153.203 154.089 194 103.5 194C52.9111 194 12 153.203 12 103C12 52.7968 52.9111 12 103.5 12C154.089 12 195 52.7968 195 103Z" stroke="url(#paint0_linear_184_57193)" stroke-width="24"/>
<g id="Frame 4">
<path id="Text" d="M-198.197 6L-200.189 2.58H-201.509V6H-202.601V-2.364H-199.901C-199.269 -2.364 -198.737 -2.256 -198.305 -2.04C-197.865 -1.824 -197.537 -1.532 -197.321 -1.164C-197.105 -0.796 -196.997 -0.376 -196.997 0.0959998C-196.997 0.672 -197.165 1.18 -197.501 1.62C-197.829 2.06 -198.325 2.352 -198.989 2.496L-196.889 6H-198.197ZM-201.509 1.704H-199.901C-199.309 1.704 -198.865 1.56 -198.569 1.272C-198.273 0.976 -198.125 0.584 -198.125 0.0959998C-198.125 -0.4 -198.273 -0.784 -198.569 -1.056C-198.857 -1.328 -199.301 -1.464 -199.901 -1.464H-201.509V1.704ZM-195.709 2.688C-195.709 2.016 -195.573 1.428 -195.301 0.924C-195.029 0.412 -194.657 0.0159998 -194.185 -0.264C-193.705 -0.544 -193.173 -0.684 -192.589 -0.684C-192.013 -0.684 -191.513 -0.56 -191.089 -0.312C-190.665 -0.0640004 -190.349 0.248 -190.141 0.624V-0.576H-189.037V6H-190.141V4.776C-190.357 5.16 -190.681 5.48 -191.113 5.736C-191.537 5.984 -192.033 6.108 -192.601 6.108C-193.185 6.108 -193.713 5.964 -194.185 5.676C-194.657 5.388 -195.029 4.984 -195.301 4.464C-195.573 3.944 -195.709 3.352 -195.709 2.688ZM-190.141 2.7C-190.141 2.204 -190.241 1.772 -190.441 1.404C-190.641 1.036 -190.913 0.756 -191.257 0.564C-191.593 0.364 -191.965 0.264 -192.373 0.264C-192.781 0.264 -193.153 0.36 -193.489 0.552C-193.825 0.744 -194.093 1.024 -194.293 1.392C-194.493 1.76 -194.593 2.192 -194.593 2.688C-194.593 3.192 -194.493 3.632 -194.293 4.008C-194.093 4.376 -193.825 4.66 -193.489 4.86C-193.153 5.052 -192.781 5.148 -192.373 5.148C-191.965 5.148 -191.593 5.052 -191.257 4.86C-190.913 4.66 -190.641 4.376 -190.441 4.008C-190.241 3.632 -190.141 3.196 -190.141 2.7ZM-184.863 6.108C-185.367 6.108 -185.819 6.024 -186.219 5.856C-186.619 5.68 -186.935 5.44 -187.167 5.136C-187.399 4.824 -187.527 4.468 -187.551 4.068H-186.423C-186.391 4.396 -186.239 4.664 -185.967 4.872C-185.687 5.08 -185.323 5.184 -184.875 5.184C-184.459 5.184 -184.131 5.092 -183.891 4.908C-183.651 4.724 -183.531 4.492 -183.531 4.212C-183.531 3.924 -183.659 3.712 -183.915 3.576C-184.171 3.432 -184.567 3.292 -185.103 3.156C-185.591 3.028 -185.991 2.9 -186.303 2.772C-186.607 2.636 -186.871 2.44 -187.095 2.184C-187.311 1.92 -187.419 1.576 -187.419 1.152C-187.419 0.816 -187.319 0.508 -187.119 0.228C-186.919 -0.0520004 -186.635 -0.272 -186.267 -0.432C-185.899 -0.6 -185.479 -0.684 -185.007 -0.684C-184.279 -0.684 -183.691 -0.5 -183.243 -0.132C-182.795 0.236 -182.555 0.74 -182.523 1.38H-183.615C-183.639 1.036 -183.779 0.76 -184.035 0.552C-184.283 0.344 -184.619 0.24 -185.043 0.24C-185.435 0.24 -185.747 0.324 -185.979 0.492C-186.211 0.66 -186.327 0.88 -186.327 1.152C-186.327 1.368 -186.259 1.548 -186.123 1.692C-185.979 1.828 -185.803 1.94 -185.595 2.028C-185.379 2.108 -185.083 2.2 -184.707 2.304C-184.235 2.432 -183.851 2.56 -183.555 2.688C-183.259 2.808 -183.007 2.992 -182.799 3.24C-182.583 3.488 -182.471 3.812 -182.463 4.212C-182.463 4.572 -182.563 4.896 -182.763 5.184C-182.963 5.472 -183.247 5.7 -183.615 5.868C-183.975 6.028 -184.391 6.108 -184.863 6.108ZM-181.33 2.688C-181.33 2.016 -181.194 1.428 -180.922 0.924C-180.65 0.412 -180.278 0.0159998 -179.806 -0.264C-179.326 -0.544 -178.794 -0.684 -178.21 -0.684C-177.634 -0.684 -177.134 -0.56 -176.71 -0.312C-176.286 -0.0640004 -175.97 0.248 -175.762 0.624V-0.576H-174.658V6H-175.762V4.776C-175.978 5.16 -176.302 5.48 -176.734 5.736C-177.158 5.984 -177.654 6.108 -178.222 6.108C-178.806 6.108 -179.334 5.964 -179.806 5.676C-180.278 5.388 -180.65 4.984 -180.922 4.464C-181.194 3.944 -181.33 3.352 -181.33 2.688ZM-175.762 2.7C-175.762 2.204 -175.862 1.772 -176.062 1.404C-176.262 1.036 -176.534 0.756 -176.878 0.564C-177.214 0.364 -177.586 0.264 -177.994 0.264C-178.402 0.264 -178.774 0.36 -179.11 0.552C-179.446 0.744 -179.714 1.024 -179.914 1.392C-180.114 1.76 -180.214 2.192 -180.214 2.688C-180.214 3.192 -180.114 3.632 -179.914 4.008C-179.714 4.376 -179.446 4.66 -179.11 4.86C-178.774 5.052 -178.402 5.148 -177.994 5.148C-177.586 5.148 -177.214 5.052 -176.878 4.86C-176.534 4.66 -176.262 4.376 -176.062 4.008C-175.862 3.632 -175.762 3.196 -175.762 2.7ZM-169.14 6L-171.72 3.096V6H-172.812V-2.88H-171.72V2.34L-169.188 -0.576H-167.664L-170.76 2.7L-167.652 6H-169.14ZM-167.045 2.688C-167.045 2.016 -166.909 1.428 -166.637 0.924C-166.365 0.412 -165.993 0.0159998 -165.521 -0.264C-165.041 -0.544 -164.509 -0.684 -163.925 -0.684C-163.349 -0.684 -162.849 -0.56 -162.425 -0.312C-162.001 -0.0640004 -161.685 0.248 -161.477 0.624V-0.576H-160.373V6H-161.477V4.776C-161.693 5.16 -162.017 5.48 -162.449 5.736C-162.873 5.984 -163.369 6.108 -163.937 6.108C-164.521 6.108 -165.049 5.964 -165.521 5.676C-165.993 5.388 -166.365 4.984 -166.637 4.464C-166.909 3.944 -167.045 3.352 -167.045 2.688ZM-161.477 2.7C-161.477 2.204 -161.577 1.772 -161.777 1.404C-161.977 1.036 -162.249 0.756 -162.593 0.564C-162.929 0.364 -163.301 0.264 -163.709 0.264C-164.117 0.264 -164.489 0.36 -164.825 0.552C-165.161 0.744 -165.429 1.024 -165.629 1.392C-165.829 1.76 -165.929 2.192 -165.929 2.688C-165.929 3.192 -165.829 3.632 -165.629 4.008C-165.429 4.376 -165.161 4.66 -164.825 4.86C-164.489 5.052 -164.117 5.148 -163.709 5.148C-163.301 5.148 -162.929 5.052 -162.593 4.86C-162.249 4.66 -161.977 4.376 -161.777 4.008C-161.577 3.632 -161.477 3.196 -161.477 2.7ZM-155.323 -0.696C-154.523 -0.696 -153.875 -0.452 -153.379 0.0359999C-152.883 0.516 -152.635 1.212 -152.635 2.124V6H-153.715V2.28C-153.715 1.624 -153.879 1.124 -154.207 0.78C-154.535 0.428 -154.983 0.252 -155.551 0.252C-156.127 0.252 -156.587 0.432 -156.931 0.792C-157.267 1.152 -157.435 1.676 -157.435 2.364V6H-158.527V-0.576H-157.435V0.36C-157.219 0.0239997 -156.927 -0.236 -156.559 -0.42C-156.183 -0.604 -155.771 -0.696 -155.323 -0.696ZM-146.56 0.636C-146.344 0.26 -146.024 -0.0520003 -145.6 -0.3C-145.168 -0.556 -144.668 -0.684 -144.1 -0.684C-143.516 -0.684 -142.988 -0.544 -142.516 -0.264C-142.036 0.0159998 -141.66 0.412 -141.388 0.924C-141.116 1.428 -140.98 2.016 -140.98 2.688C-140.98 3.352 -141.116 3.944 -141.388 4.464C-141.66 4.984 -142.036 5.388 -142.516 5.676C-142.988 5.964 -143.516 6.108 -144.1 6.108C-144.66 6.108 -145.156 5.984 -145.588 5.736C-146.012 5.48 -146.336 5.164 -146.56 4.788V9.12H-147.652V-0.576H-146.56V0.636ZM-142.096 2.688C-142.096 2.192 -142.196 1.76 -142.396 1.392C-142.596 1.024 -142.868 0.744 -143.212 0.552C-143.548 0.36 -143.92 0.264 -144.328 0.264C-144.728 0.264 -145.1 0.364 -145.444 0.564C-145.78 0.756 -146.052 1.04 -146.26 1.416C-146.46 1.784 -146.56 2.212 -146.56 2.7C-146.56 3.196 -146.46 3.632 -146.26 4.008C-146.052 4.376 -145.78 4.66 -145.444 4.86C-145.1 5.052 -144.728 5.148 -144.328 5.148C-143.92 5.148 -143.548 5.052 -143.212 4.86C-142.868 4.66 -142.596 4.376 -142.396 4.008C-142.196 3.632 -142.096 3.192 -142.096 2.688ZM-133.543 2.46C-133.543 2.668 -133.555 2.888 -133.579 3.12H-138.835C-138.795 3.768 -138.575 4.276 -138.175 4.644C-137.767 5.004 -137.275 5.184 -136.699 5.184C-136.227 5.184 -135.835 5.076 -135.523 4.86C-135.203 4.636 -134.979 4.34 -134.851 3.972H-133.675C-133.851 4.604 -134.203 5.12 -134.731 5.52C-135.259 5.912 -135.915 6.108 -136.699 6.108C-137.323 6.108 -137.883 5.968 -138.379 5.688C-138.867 5.408 -139.251 5.012 -139.531 4.5C-139.811 3.98 -139.951 3.38 -139.951 2.7C-139.951 2.02 -139.815 1.424 -139.543 0.912C-139.271 0.4 -138.891 0.00799966 -138.403 -0.264C-137.907 -0.544 -137.339 -0.684 -136.699 -0.684C-136.075 -0.684 -135.523 -0.548 -135.043 -0.276C-134.563 -0.00400019 -134.195 0.372 -133.939 0.852C-133.675 1.324 -133.543 1.86 -133.543 2.46ZM-134.671 2.232C-134.671 1.816 -134.763 1.46 -134.947 1.164C-135.131 0.86 -135.383 0.632 -135.703 0.48C-136.015 0.32 -136.363 0.24 -136.747 0.24C-137.299 0.24 -137.771 0.416 -138.163 0.768C-138.547 1.12 -138.767 1.608 -138.823 2.232H-134.671ZM-128.897 -0.696C-128.097 -0.696 -127.449 -0.452 -126.953 0.0359999C-126.457 0.516 -126.209 1.212 -126.209 2.124V6H-127.289V2.28C-127.289 1.624 -127.453 1.124 -127.781 0.78C-128.109 0.428 -128.557 0.252 -129.125 0.252C-129.701 0.252 -130.161 0.432 -130.505 0.792C-130.841 1.152 -131.009 1.676 -131.009 2.364V6H-132.101V-0.576H-131.009V0.36C-130.793 0.0239997 -130.501 -0.236 -130.133 -0.42C-129.757 -0.604 -129.345 -0.696 -128.897 -0.696ZM-121.714 -0.684C-121.146 -0.684 -120.65 -0.56 -120.226 -0.312C-119.794 -0.0640004 -119.474 0.248 -119.266 0.624V-0.576H-118.162V6.144C-118.162 6.744 -118.29 7.276 -118.546 7.74C-118.802 8.212 -119.17 8.58 -119.65 8.844C-120.122 9.108 -120.674 9.24 -121.306 9.24C-122.17 9.24 -122.89 9.036 -123.466 8.628C-124.042 8.22 -124.382 7.664 -124.486 6.96H-123.406C-123.286 7.36 -123.038 7.68 -122.662 7.92C-122.286 8.168 -121.834 8.292 -121.306 8.292C-120.706 8.292 -120.218 8.104 -119.842 7.728C-119.458 7.352 -119.266 6.824 -119.266 6.144V4.764C-119.482 5.148 -119.802 5.468 -120.226 5.724C-120.65 5.98 -121.146 6.108 -121.714 6.108C-122.298 6.108 -122.83 5.964 -123.31 5.676C-123.782 5.388 -124.154 4.984 -124.426 4.464C-124.698 3.944 -124.834 3.352 -124.834 2.688C-124.834 2.016 -124.698 1.428 -124.426 0.924C-124.154 0.412 -123.782 0.0159998 -123.31 -0.264C-122.83 -0.544 -122.298 -0.684 -121.714 -0.684ZM-119.266 2.7C-119.266 2.204 -119.366 1.772 -119.566 1.404C-119.766 1.036 -120.038 0.756 -120.382 0.564C-120.718 0.364 -121.09 0.264 -121.498 0.264C-121.906 0.264 -122.278 0.36 -122.614 0.552C-122.95 0.744 -123.218 1.024 -123.418 1.392C-123.618 1.76 -123.718 2.192 -123.718 2.688C-123.718 3.192 -123.618 3.632 -123.418 4.008C-123.218 4.376 -122.95 4.66 -122.614 4.86C-122.278 5.052 -121.906 5.148 -121.498 5.148C-121.09 5.148 -120.718 5.052 -120.382 4.86C-120.038 4.66 -119.766 4.376 -119.566 4.008C-119.366 3.632 -119.266 3.196 -119.266 2.7ZM-116.724 2.688C-116.724 2.016 -116.588 1.428 -116.316 0.924C-116.044 0.412 -115.672 0.0159998 -115.2 -0.264C-114.72 -0.544 -114.188 -0.684 -113.604 -0.684C-113.028 -0.684 -112.528 -0.56 -112.104 -0.312C-111.68 -0.0640004 -111.364 0.248 -111.156 0.624V-0.576H-110.052V6H-111.156V4.776C-111.372 5.16 -111.696 5.48 -112.128 5.736C-112.552 5.984 -113.048 6.108 -113.616 6.108C-114.2 6.108 -114.728 5.964 -115.2 5.676C-115.672 5.388 -116.044 4.984 -116.316 4.464C-116.588 3.944 -116.724 3.352 -116.724 2.688ZM-111.156 2.7C-111.156 2.204 -111.256 1.772 -111.456 1.404C-111.656 1.036 -111.928 0.756 -112.272 0.564C-112.608 0.364 -112.98 0.264 -113.388 0.264C-113.796 0.264 -114.168 0.36 -114.504 0.552C-114.84 0.744 -115.108 1.024 -115.308 1.392C-115.508 1.76 -115.608 2.192 -115.608 2.688C-115.608 3.192 -115.508 3.632 -115.308 4.008C-115.108 4.376 -114.84 4.66 -114.504 4.86C-114.168 5.052 -113.796 5.148 -113.388 5.148C-112.98 5.148 -112.608 5.052 -112.272 4.86C-111.928 4.66 -111.656 4.376 -111.456 4.008C-111.256 3.632 -111.156 3.196 -111.156 2.7ZM-107.115 -2.88V6H-108.207V-2.88H-107.115ZM-105.662 2.688C-105.662 2.016 -105.526 1.428 -105.254 0.924C-104.982 0.412 -104.61 0.0159998 -104.138 -0.264C-103.658 -0.544 -103.126 -0.684 -102.542 -0.684C-101.966 -0.684 -101.466 -0.56 -101.042 -0.312C-100.618 -0.0640004 -100.302 0.248 -100.094 0.624V-0.576H-98.9897V6H-100.094V4.776C-100.31 5.16 -100.634 5.48 -101.066 5.736C-101.49 5.984 -101.986 6.108 -102.554 6.108C-103.138 6.108 -103.666 5.964 -104.138 5.676C-104.61 5.388 -104.982 4.984 -105.254 4.464C-105.526 3.944 -105.662 3.352 -105.662 2.688ZM-100.094 2.7C-100.094 2.204 -100.194 1.772 -100.394 1.404C-100.594 1.036 -100.866 0.756 -101.21 0.564C-101.546 0.364 -101.918 0.264 -102.326 0.264C-102.734 0.264 -103.106 0.36 -103.442 0.552C-103.778 0.744 -104.046 1.024 -104.246 1.392C-104.446 1.76 -104.546 2.192 -104.546 2.688C-104.546 3.192 -104.446 3.632 -104.246 4.008C-104.046 4.376 -103.778 4.66 -103.442 4.86C-103.106 5.052 -102.734 5.148 -102.326 5.148C-101.918 5.148 -101.546 5.052 -101.21 4.86C-100.866 4.66 -100.594 4.376 -100.394 4.008C-100.194 3.632 -100.094 3.196 -100.094 2.7ZM-89.2364 -0.696C-88.7244 -0.696 -88.2684 -0.588 -87.8684 -0.372C-87.4684 -0.164 -87.1524 0.152 -86.9204 0.576C-86.6884 1 -86.5724 1.516 -86.5724 2.124V6H-87.6524V2.28C-87.6524 1.624 -87.8164 1.124 -88.1444 0.78C-88.4644 0.428 -88.9004 0.252 -89.4524 0.252C-90.0204 0.252 -90.4724 0.436 -90.8084 0.804C-91.1444 1.164 -91.3124 1.688 -91.3124 2.376V6H-92.3924V2.28C-92.3924 1.624 -92.5564 1.124 -92.8844 0.78C-93.2044 0.428 -93.6404 0.252 -94.1924 0.252C-94.7604 0.252 -95.2124 0.436 -95.5484 0.804C-95.8844 1.164 -96.0524 1.688 -96.0524 2.376V6H-97.1444V-0.576H-96.0524V0.372C-95.8364 0.0279998 -95.5484 -0.236 -95.1884 -0.42C-94.8204 -0.604 -94.4164 -0.696 -93.9764 -0.696C-93.4244 -0.696 -92.9364 -0.572 -92.5124 -0.324C-92.0884 -0.0760002 -91.7724 0.288 -91.5644 0.768C-91.3804 0.304 -91.0764 -0.0560002 -90.6524 -0.312C-90.2284 -0.568 -89.7564 -0.696 -89.2364 -0.696ZM-85.1891 2.688C-85.1891 2.016 -85.0531 1.428 -84.7811 0.924C-84.5091 0.412 -84.1371 0.0159998 -83.6651 -0.264C-83.1851 -0.544 -82.6531 -0.684 -82.0691 -0.684C-81.4931 -0.684 -80.9931 -0.56 -80.5691 -0.312C-80.1451 -0.0640004 -79.8291 0.248 -79.6211 0.624V-0.576H-78.5171V6H-79.6211V4.776C-79.8371 5.16 -80.1611 5.48 -80.5931 5.736C-81.0171 5.984 -81.5131 6.108 -82.0811 6.108C-82.6651 6.108 -83.1931 5.964 -83.6651 5.676C-84.1371 5.388 -84.5091 4.984 -84.7811 4.464C-85.0531 3.944 -85.1891 3.352 -85.1891 2.688ZM-79.6211 2.7C-79.6211 2.204 -79.7211 1.772 -79.9211 1.404C-80.1211 1.036 -80.3931 0.756 -80.7371 0.564C-81.0731 0.364 -81.4451 0.264 -81.8531 0.264C-82.2611 0.264 -82.6331 0.36 -82.9691 0.552C-83.3051 0.744 -83.5731 1.024 -83.7731 1.392C-83.9731 1.76 -84.0731 2.192 -84.0731 2.688C-84.0731 3.192 -83.9731 3.632 -83.7731 4.008C-83.5731 4.376 -83.3051 4.66 -82.9691 4.86C-82.6331 5.052 -82.2611 5.148 -81.8531 5.148C-81.4451 5.148 -81.0731 5.052 -80.7371 4.86C-80.3931 4.66 -80.1211 4.376 -79.9211 4.008C-79.7211 3.632 -79.6211 3.196 -79.6211 2.7ZM-73.4677 -0.696C-72.6677 -0.696 -72.0197 -0.452 -71.5237 0.0359999C-71.0277 0.516 -70.7797 1.212 -70.7797 2.124V6H-71.8597V2.28C-71.8597 1.624 -72.0237 1.124 -72.3517 0.78C-72.6797 0.428 -73.1277 0.252 -73.6957 0.252C-74.2717 0.252 -74.7317 0.432 -75.0757 0.792C-75.4117 1.152 -75.5797 1.676 -75.5797 2.364V6H-76.6717V-0.576H-75.5797V0.36C-75.3637 0.0239997 -75.0717 -0.236 -74.7037 -0.42C-74.3277 -0.604 -73.9157 -0.696 -73.4677 -0.696ZM-64.4647 0.324V4.2C-64.4647 4.52 -64.3967 4.748 -64.2607 4.884C-64.1247 5.012 -63.8887 5.076 -63.5527 5.076H-62.7487V6H-63.7327C-64.3407 6 -64.7967 5.86 -65.1007 5.58C-65.4047 5.3 -65.5567 4.84 -65.5567 4.2V0.324H-66.4087V-0.576H-65.5567V-2.232H-64.4647V-0.576H-62.7487V0.324H-64.4647ZM-60.3336 0.492C-60.1416 0.116 -59.8696 -0.176 -59.5176 -0.384C-59.1576 -0.592 -58.7216 -0.696 -58.2096 -0.696V0.432H-58.4976C-59.7216 0.432 -60.3336 1.096 -60.3336 2.424V6H-61.4256V-0.576H-60.3336V0.492ZM-57.357 2.688C-57.357 2.016 -57.221 1.428 -56.949 0.924C-56.677 0.412 -56.305 0.0159998 -55.833 -0.264C-55.353 -0.544 -54.821 -0.684 -54.237 -0.684C-53.661 -0.684 -53.161 -0.56 -52.737 -0.312C-52.313 -0.0640004 -51.997 0.248 -51.789 0.624V-0.576H-50.685V6H-51.789V4.776C-52.005 5.16 -52.329 5.48 -52.761 5.736C-53.185 5.984 -53.681 6.108 -54.249 6.108C-54.833 6.108 -55.361 5.964 -55.833 5.676C-56.305 5.388 -56.677 4.984 -56.949 4.464C-57.221 3.944 -57.357 3.352 -57.357 2.688ZM-51.789 2.7C-51.789 2.204 -51.889 1.772 -52.089 1.404C-52.289 1.036 -52.561 0.756 -52.905 0.564C-53.241 0.364 -53.613 0.264 -54.021 0.264C-54.429 0.264 -54.801 0.36 -55.137 0.552C-55.473 0.744 -55.741 1.024 -55.941 1.392C-56.141 1.76 -56.241 2.192 -56.241 2.688C-56.241 3.192 -56.141 3.632 -55.941 4.008C-55.741 4.376 -55.473 4.66 -55.137 4.86C-54.801 5.052 -54.429 5.148 -54.021 5.148C-53.613 5.148 -53.241 5.052 -52.905 4.86C-52.561 4.66 -52.289 4.376 -52.089 4.008C-51.889 3.632 -51.789 3.196 -51.789 2.7ZM-45.6357 -0.696C-44.8357 -0.696 -44.1877 -0.452 -43.6917 0.0359999C-43.1957 0.516 -42.9477 1.212 -42.9477 2.124V6H-44.0277V2.28C-44.0277 1.624 -44.1917 1.124 -44.5197 0.78C-44.8477 0.428 -45.2957 0.252 -45.8637 0.252C-46.4397 0.252 -46.8997 0.432 -47.2437 0.792C-47.5797 1.152 -47.7477 1.676 -47.7477 2.364V6H-48.8397V-0.576H-47.7477V0.36C-47.5317 0.0239997 -47.2397 -0.236 -46.8717 -0.42C-46.4957 -0.604 -46.0837 -0.696 -45.6357 -0.696ZM-38.8359 6.108C-39.3399 6.108 -39.7919 6.024 -40.1919 5.856C-40.5919 5.68 -40.9079 5.44 -41.1399 5.136C-41.3719 4.824 -41.4999 4.468 -41.5239 4.068H-40.3959C-40.3639 4.396 -40.2119 4.664 -39.9399 4.872C-39.6599 5.08 -39.2959 5.184 -38.8479 5.184C-38.4319 5.184 -38.1039 5.092 -37.8639 4.908C-37.6239 4.724 -37.5039 4.492 -37.5039 4.212C-37.5039 3.924 -37.6319 3.712 -37.8879 3.576C-38.1439 3.432 -38.5399 3.292 -39.0759 3.156C-39.5639 3.028 -39.9639 2.9 -40.2759 2.772C-40.5799 2.636 -40.8439 2.44 -41.0679 2.184C-41.2839 1.92 -41.3919 1.576 -41.3919 1.152C-41.3919 0.816 -41.2919 0.508 -41.0919 0.228C-40.8919 -0.0520004 -40.6079 -0.272 -40.2399 -0.432C-39.8719 -0.6 -39.4519 -0.684 -38.9799 -0.684C-38.2519 -0.684 -37.6639 -0.5 -37.2159 -0.132C-36.7679 0.236 -36.5279 0.74 -36.4959 1.38H-37.5879C-37.6119 1.036 -37.7519 0.76 -38.0079 0.552C-38.2559 0.344 -38.5919 0.24 -39.0159 0.24C-39.4079 0.24 -39.7199 0.324 -39.9519 0.492C-40.1839 0.66 -40.2999 0.88 -40.2999 1.152C-40.2999 1.368 -40.2319 1.548 -40.0959 1.692C-39.9519 1.828 -39.7759 1.94 -39.5679 2.028C-39.3519 2.108 -39.0559 2.2 -38.6799 2.304C-38.2079 2.432 -37.8239 2.56 -37.5279 2.688C-37.2319 2.808 -36.9799 2.992 -36.7719 3.24C-36.5559 3.488 -36.4439 3.812 -36.4359 4.212C-36.4359 4.572 -36.5359 4.896 -36.7359 5.184C-36.9359 5.472 -37.2199 5.7 -37.5879 5.868C-37.9479 6.028 -38.3639 6.108 -38.8359 6.108ZM-35.3024 2.688C-35.3024 2.016 -35.1664 1.428 -34.8944 0.924C-34.6224 0.412 -34.2504 0.0159998 -33.7784 -0.264C-33.2984 -0.544 -32.7664 -0.684 -32.1824 -0.684C-31.6064 -0.684 -31.1064 -0.56 -30.6824 -0.312C-30.2584 -0.0640004 -29.9424 0.248 -29.7344 0.624V-0.576H-28.6304V6H-29.7344V4.776C-29.9504 5.16 -30.2744 5.48 -30.7064 5.736C-31.1304 5.984 -31.6264 6.108 -32.1944 6.108C-32.7784 6.108 -33.3064 5.964 -33.7784 5.676C-34.2504 5.388 -34.6224 4.984 -34.8944 4.464C-35.1664 3.944 -35.3024 3.352 -35.3024 2.688ZM-29.7344 2.7C-29.7344 2.204 -29.8344 1.772 -30.0344 1.404C-30.2344 1.036 -30.5064 0.756 -30.8504 0.564C-31.1864 0.364 -31.5584 0.264 -31.9664 0.264C-32.3744 0.264 -32.7464 0.36 -33.0824 0.552C-33.4184 0.744 -33.6864 1.024 -33.8864 1.392C-34.0864 1.76 -34.1864 2.192 -34.1864 2.688C-34.1864 3.192 -34.0864 3.632 -33.8864 4.008C-33.6864 4.376 -33.4184 4.66 -33.0824 4.86C-32.7464 5.052 -32.3744 5.148 -31.9664 5.148C-31.5584 5.148 -31.1864 5.052 -30.8504 4.86C-30.5064 4.66 -30.2344 4.376 -30.0344 4.008C-29.8344 3.632 -29.7344 3.196 -29.7344 2.7ZM-23.113 6L-25.693 3.096V6H-26.785V-2.88H-25.693V2.34L-23.161 -0.576H-21.637L-24.733 2.7L-21.625 6H-23.113ZM-18.2812 6.108C-18.7852 6.108 -19.2372 6.024 -19.6372 5.856C-20.0372 5.68 -20.3532 5.44 -20.5852 5.136C-20.8172 4.824 -20.9452 4.468 -20.9692 4.068H-19.8412C-19.8092 4.396 -19.6572 4.664 -19.3852 4.872C-19.1052 5.08 -18.7412 5.184 -18.2932 5.184C-17.8772 5.184 -17.5492 5.092 -17.3092 4.908C-17.0692 4.724 -16.9492 4.492 -16.9492 4.212C-16.9492 3.924 -17.0772 3.712 -17.3332 3.576C-17.5892 3.432 -17.9852 3.292 -18.5212 3.156C-19.0092 3.028 -19.4092 2.9 -19.7212 2.772C-20.0252 2.636 -20.2892 2.44 -20.5132 2.184C-20.7292 1.92 -20.8372 1.576 -20.8372 1.152C-20.8372 0.816 -20.7372 0.508 -20.5372 0.228C-20.3372 -0.0520004 -20.0532 -0.272 -19.6852 -0.432C-19.3172 -0.6 -18.8972 -0.684 -18.4252 -0.684C-17.6972 -0.684 -17.1092 -0.5 -16.6612 -0.132C-16.2132 0.236 -15.9732 0.74 -15.9412 1.38H-17.0332C-17.0572 1.036 -17.1972 0.76 -17.4532 0.552C-17.7012 0.344 -18.0372 0.24 -18.4612 0.24C-18.8532 0.24 -19.1652 0.324 -19.3972 0.492C-19.6292 0.66 -19.7452 0.88 -19.7452 1.152C-19.7452 1.368 -19.6772 1.548 -19.5412 1.692C-19.3972 1.828 -19.2212 1.94 -19.0132 2.028C-18.7972 2.108 -18.5012 2.2 -18.1252 2.304C-17.6532 2.432 -17.2692 2.56 -16.9732 2.688C-16.6772 2.808 -16.4252 2.992 -16.2172 3.24C-16.0012 3.488 -15.8892 3.812 -15.8812 4.212C-15.8812 4.572 -15.9812 4.896 -16.1812 5.184C-16.3812 5.472 -16.6652 5.7 -17.0332 5.868C-17.3932 6.028 -17.8092 6.108 -18.2812 6.108ZM-13.7757 -1.644C-13.9837 -1.644 -14.1597 -1.716 -14.3037 -1.86C-14.4477 -2.004 -14.5197 -2.18 -14.5197 -2.388C-14.5197 -2.596 -14.4477 -2.772 -14.3037 -2.916C-14.1597 -3.06 -13.9837 -3.132 -13.7757 -3.132C-13.5757 -3.132 -13.4077 -3.06 -13.2717 -2.916C-13.1277 -2.772 -13.0557 -2.596 -13.0557 -2.388C-13.0557 -2.18 -13.1277 -2.004 -13.2717 -1.86C-13.4077 -1.716 -13.5757 -1.644 -13.7757 -1.644ZM-13.2477 -0.576V6H-14.3397V-0.576H-13.2477ZM-6.85533 0.324V4.2C-6.85533 4.52 -6.78733 4.748 -6.65133 4.884C-6.51533 5.012 -6.27933 5.076 -5.94333 5.076H-5.13933V6H-6.12333C-6.73133 6 -7.18733 5.86 -7.49133 5.58C-7.79533 5.3 -7.94733 4.84 -7.94733 4.2V0.324H-8.79933V-0.576H-7.94733V-2.232H-6.85533V-0.576H-5.13933V0.324H-6.85533ZM2.18377 2.46C2.18377 2.668 2.17177 2.888 2.14777 3.12H-3.10823C-3.06823 3.768 -2.84823 4.276 -2.44823 4.644C-2.04023 5.004 -1.54823 5.184 -0.972234 5.184C-0.500234 5.184 -0.108234 5.076 0.203766 4.86C0.523766 4.636 0.747766 4.34 0.875766 3.972H2.05177C1.87577 4.604 1.52377 5.12 0.995766 5.52C0.467766 5.912 -0.188234 6.108 -0.972234 6.108C-1.59623 6.108 -2.15623 5.968 -2.65223 5.688C-3.14023 5.408 -3.52423 5.012 -3.80423 4.5C-4.08423 3.98 -4.22423 3.38 -4.22423 2.7C-4.22423 2.02 -4.08823 1.424 -3.81623 0.912C-3.54423 0.4 -3.16423 0.00799966 -2.67623 -0.264C-2.18023 -0.544 -1.61223 -0.684 -0.972234 -0.684C-0.348234 -0.684 0.203766 -0.548 0.683766 -0.276C1.16377 -0.00400019 1.53177 0.372 1.78777 0.852C2.05177 1.324 2.18377 1.86 2.18377 2.46ZM1.05577 2.232C1.05577 1.816 0.963766 1.46 0.779766 1.164C0.595766 0.86 0.343766 0.632 0.0237658 0.48C-0.288234 0.32 -0.636234 0.24 -1.02023 0.24C-1.57223 0.24 -2.04423 0.416 -2.43623 0.768C-2.82023 1.12 -3.04023 1.608 -3.09623 2.232H1.05577ZM4.71717 0.492C4.90917 0.116 5.18117 -0.176 5.53317 -0.384C5.89317 -0.592 6.32917 -0.696 6.84117 -0.696V0.432H6.55317C5.32917 0.432 4.71717 1.096 4.71717 2.424V6H3.62517V-0.576H4.71717V0.492ZM9.19373 0.648C9.41773 0.256 9.74573 -0.0640004 10.1777 -0.312C10.6097 -0.56 11.1017 -0.684 11.6537 -0.684C12.2457 -0.684 12.7777 -0.544 13.2497 -0.264C13.7217 0.0159998 14.0937 0.412 14.3657 0.924C14.6377 1.428 14.7737 2.016 14.7737 2.688C14.7737 3.352 14.6377 3.944 14.3657 4.464C14.0937 4.984 13.7177 5.388 13.2377 5.676C12.7657 5.964 12.2377 6.108 11.6537 6.108C11.0857 6.108 10.5857 5.984 10.1537 5.736C9.72973 5.488 9.40973 5.172 9.19373 4.788V6H8.10173V-2.88H9.19373V0.648ZM13.6577 2.688C13.6577 2.192 13.5577 1.76 13.3577 1.392C13.1577 1.024 12.8857 0.744 12.5417 0.552C12.2057 0.36 11.8337 0.264 11.4257 0.264C11.0257 0.264 10.6537 0.364 10.3097 0.564C9.97373 0.756 9.70173 1.04 9.49373 1.416C9.29373 1.784 9.19373 2.212 9.19373 2.7C9.19373 3.196 9.29373 3.632 9.49373 4.008C9.70173 4.376 9.97373 4.66 10.3097 4.86C10.6537 5.052 11.0257 5.148 11.4257 5.148C11.8337 5.148 12.2057 5.052 12.5417 4.86C12.8857 4.66 13.1577 4.376 13.3577 4.008C13.5577 3.632 13.6577 3.192 13.6577 2.688ZM15.8031 2.688C15.8031 2.016 15.9391 1.428 16.2111 0.924C16.4831 0.412 16.8551 0.0159998 17.3271 -0.264C17.8071 -0.544 18.3391 -0.684 18.9231 -0.684C19.4991 -0.684 19.9991 -0.56 20.4231 -0.312C20.8471 -0.0640004 21.1631 0.248 21.3711 0.624V-0.576H22.4751V6H21.3711V4.776C21.1551 5.16 20.8311 5.48 20.3991 5.736C19.9751 5.984 19.4791 6.108 18.9111 6.108C18.3271 6.108 17.7991 5.964 17.3271 5.676C16.8551 5.388 16.4831 4.984 16.2111 4.464C15.9391 3.944 15.8031 3.352 15.8031 2.688ZM21.3711 2.7C21.3711 2.204 21.2711 1.772 21.0711 1.404C20.8711 1.036 20.5991 0.756 20.2551 0.564C19.9191 0.364 19.5471 0.264 19.1391 0.264C18.7311 0.264 18.3591 0.36 18.0231 0.552C17.6871 0.744 17.4191 1.024 17.2191 1.392C17.0191 1.76 16.9191 2.192 16.9191 2.688C16.9191 3.192 17.0191 3.632 17.2191 4.008C17.4191 4.376 17.6871 4.66 18.0231 4.86C18.3591 5.052 18.7311 5.148 19.1391 5.148C19.5471 5.148 19.9191 5.052 20.2551 4.86C20.5991 4.66 20.8711 4.376 21.0711 4.008C21.2711 3.632 21.3711 3.196 21.3711 2.7ZM24.8845 -1.644C24.6765 -1.644 24.5005 -1.716 24.3565 -1.86C24.2125 -2.004 24.1405 -2.18 24.1405 -2.388C24.1405 -2.596 24.2125 -2.772 24.3565 -2.916C24.5005 -3.06 24.6765 -3.132 24.8845 -3.132C25.0845 -3.132 25.2525 -3.06 25.3885 -2.916C25.5325 -2.772 25.6045 -2.596 25.6045 -2.388C25.6045 -2.18 25.5325 -2.004 25.3885 -1.86C25.2525 -1.716 25.0845 -1.644 24.8845 -1.644ZM25.4125 -0.576V6H24.3205V-0.576H25.4125ZM30.9456 6L28.3656 3.096V6H27.2736V-2.88H28.3656V2.34L30.8976 -0.576H32.4216L29.3256 2.7L32.4336 6H30.9456ZM-132.709 18.688C-132.709 18.016 -132.573 17.428 -132.301 16.924C-132.029 16.412 -131.657 16.016 -131.185 15.736C-130.705 15.456 -130.169 15.316 -129.577 15.316C-129.065 15.316 -128.589 15.436 -128.149 15.676C-127.709 15.908 -127.373 16.216 -127.141 16.6V13.12H-126.037V22H-127.141V20.764C-127.357 21.156 -127.677 21.48 -128.101 21.736C-128.525 21.984 -129.021 22.108 -129.589 22.108C-130.173 22.108 -130.705 21.964 -131.185 21.676C-131.657 21.388 -132.029 20.984 -132.301 20.464C-132.573 19.944 -132.709 19.352 -132.709 18.688ZM-127.141 18.7C-127.141 18.204 -127.241 17.772 -127.441 17.404C-127.641 17.036 -127.913 16.756 -128.257 16.564C-128.593 16.364 -128.965 16.264 -129.373 16.264C-129.781 16.264 -130.153 16.36 -130.489 16.552C-130.825 16.744 -131.093 17.024 -131.293 17.392C-131.493 17.76 -131.593 18.192 -131.593 18.688C-131.593 19.192 -131.493 19.632 -131.293 20.008C-131.093 20.376 -130.825 20.66 -130.489 20.86C-130.153 21.052 -129.781 21.148 -129.373 21.148C-128.965 21.148 -128.593 21.052 -128.257 20.86C-127.913 20.66 -127.641 20.376 -127.441 20.008C-127.241 19.632 -127.141 19.196 -127.141 18.7ZM-118.191 18.46C-118.191 18.668 -118.203 18.888 -118.227 19.12H-123.483C-123.443 19.768 -123.223 20.276 -122.823 20.644C-122.415 21.004 -121.923 21.184 -121.347 21.184C-120.875 21.184 -120.483 21.076 -120.171 20.86C-119.851 20.636 -119.627 20.34 -119.499 19.972H-118.323C-118.499 20.604 -118.851 21.12 -119.379 21.52C-119.907 21.912 -120.563 22.108 -121.347 22.108C-121.971 22.108 -122.531 21.968 -123.027 21.688C-123.515 21.408 -123.899 21.012 -124.179 20.5C-124.459 19.98 -124.599 19.38 -124.599 18.7C-124.599 18.02 -124.463 17.424 -124.191 16.912C-123.919 16.4 -123.539 16.008 -123.051 15.736C-122.555 15.456 -121.987 15.316 -121.347 15.316C-120.723 15.316 -120.171 15.452 -119.691 15.724C-119.211 15.996 -118.843 16.372 -118.587 16.852C-118.323 17.324 -118.191 17.86 -118.191 18.46ZM-119.319 18.232C-119.319 17.816 -119.411 17.46 -119.595 17.164C-119.779 16.86 -120.031 16.632 -120.351 16.48C-120.663 16.32 -121.011 16.24 -121.395 16.24C-121.947 16.24 -122.419 16.416 -122.811 16.768C-123.195 17.12 -123.415 17.608 -123.471 18.232H-119.319ZM-113.546 15.304C-112.746 15.304 -112.098 15.548 -111.602 16.036C-111.106 16.516 -110.858 17.212 -110.858 18.124V22H-111.938V18.28C-111.938 17.624 -112.102 17.124 -112.43 16.78C-112.758 16.428 -113.206 16.252 -113.774 16.252C-114.35 16.252 -114.81 16.432 -115.154 16.792C-115.49 17.152 -115.658 17.676 -115.658 18.364V22H-116.75V15.424H-115.658V16.36C-115.442 16.024 -115.15 15.764 -114.782 15.58C-114.406 15.396 -113.994 15.304 -113.546 15.304ZM-106.362 15.316C-105.794 15.316 -105.298 15.44 -104.874 15.688C-104.442 15.936 -104.122 16.248 -103.914 16.624V15.424H-102.81V22.144C-102.81 22.744 -102.938 23.276 -103.194 23.74C-103.45 24.212 -103.818 24.58 -104.298 24.844C-104.77 25.108 -105.322 25.24 -105.954 25.24C-106.818 25.24 -107.538 25.036 -108.114 24.628C-108.69 24.22 -109.03 23.664 -109.134 22.96H-108.054C-107.934 23.36 -107.686 23.68 -107.31 23.92C-106.934 24.168 -106.482 24.292 -105.954 24.292C-105.354 24.292 -104.866 24.104 -104.49 23.728C-104.106 23.352 -103.914 22.824 -103.914 22.144V20.764C-104.13 21.148 -104.45 21.468 -104.874 21.724C-105.298 21.98 -105.794 22.108 -106.362 22.108C-106.946 22.108 -107.478 21.964 -107.958 21.676C-108.43 21.388 -108.802 20.984 -109.074 20.464C-109.346 19.944 -109.482 19.352 -109.482 18.688C-109.482 18.016 -109.346 17.428 -109.074 16.924C-108.802 16.412 -108.43 16.016 -107.958 15.736C-107.478 15.456 -106.946 15.316 -106.362 15.316ZM-103.914 18.7C-103.914 18.204 -104.014 17.772 -104.214 17.404C-104.414 17.036 -104.686 16.756 -105.03 16.564C-105.366 16.364 -105.738 16.264 -106.146 16.264C-106.554 16.264 -106.926 16.36 -107.262 16.552C-107.598 16.744 -107.866 17.024 -108.066 17.392C-108.266 17.76 -108.366 18.192 -108.366 18.688C-108.366 19.192 -108.266 19.632 -108.066 20.008C-107.866 20.376 -107.598 20.66 -107.262 20.86C-106.926 21.052 -106.554 21.148 -106.146 21.148C-105.738 21.148 -105.366 21.052 -105.03 20.86C-104.686 20.66 -104.414 20.376 -104.214 20.008C-104.014 19.632 -103.914 19.196 -103.914 18.7ZM-101.373 18.688C-101.373 18.016 -101.237 17.428 -100.965 16.924C-100.693 16.412 -100.321 16.016 -99.8487 15.736C-99.3687 15.456 -98.8367 15.316 -98.2527 15.316C-97.6767 15.316 -97.1767 15.44 -96.7527 15.688C-96.3287 15.936 -96.0127 16.248 -95.8047 16.624V15.424H-94.7007V22H-95.8047V20.776C-96.0207 21.16 -96.3447 21.48 -96.7767 21.736C-97.2007 21.984 -97.6967 22.108 -98.2647 22.108C-98.8487 22.108 -99.3767 21.964 -99.8487 21.676C-100.321 21.388 -100.693 20.984 -100.965 20.464C-101.237 19.944 -101.373 19.352 -101.373 18.688ZM-95.8047 18.7C-95.8047 18.204 -95.9047 17.772 -96.1047 17.404C-96.3047 17.036 -96.5767 16.756 -96.9207 16.564C-97.2567 16.364 -97.6287 16.264 -98.0367 16.264C-98.4447 16.264 -98.8167 16.36 -99.1527 16.552C-99.4887 16.744 -99.7567 17.024 -99.9567 17.392C-100.157 17.76 -100.257 18.192 -100.257 18.688C-100.257 19.192 -100.157 19.632 -99.9567 20.008C-99.7567 20.376 -99.4887 20.66 -99.1527 20.86C-98.8167 21.052 -98.4447 21.148 -98.0367 21.148C-97.6287 21.148 -97.2567 21.052 -96.9207 20.86C-96.5767 20.66 -96.3047 20.376 -96.1047 20.008C-95.9047 19.632 -95.8047 19.196 -95.8047 18.7ZM-89.6513 15.304C-88.8513 15.304 -88.2033 15.548 -87.7073 16.036C-87.2113 16.516 -86.9633 17.212 -86.9633 18.124V22H-88.0433V18.28C-88.0433 17.624 -88.2073 17.124 -88.5353 16.78C-88.8633 16.428 -89.3113 16.252 -89.8793 16.252C-90.4553 16.252 -90.9153 16.432 -91.2593 16.792C-91.5953 17.152 -91.7633 17.676 -91.7633 18.364V22H-92.8553V15.424H-91.7633V16.36C-91.5473 16.024 -91.2553 15.764 -90.8873 15.58C-90.5113 15.396 -90.0993 15.304 -89.6513 15.304ZM-79.3283 22.084C-79.8803 22.084 -80.3763 21.988 -80.8163 21.796C-81.2483 21.596 -81.5883 21.324 -81.8363 20.98C-82.0843 20.628 -82.2123 20.224 -82.2203 19.768H-81.0563C-81.0163 20.16 -80.8563 20.492 -80.5763 20.764C-80.2883 21.028 -79.8723 21.16 -79.3283 21.16C-78.8083 21.16 -78.4003 21.032 -78.1043 20.776C-77.8003 20.512 -77.6483 20.176 -77.6483 19.768C-77.6483 19.448 -77.7363 19.188 -77.9123 18.988C-78.0883 18.788 -78.3083 18.636 -78.5723 18.532C-78.8363 18.428 -79.1923 18.316 -79.6403 18.196C-80.1923 18.052 -80.6363 17.908 -80.9723 17.764C-81.3003 17.62 -81.5843 17.396 -81.8243 17.092C-82.0563 16.78 -82.1723 16.364 -82.1723 15.844C-82.1723 15.388 -82.0563 14.984 -81.8243 14.632C-81.5923 14.28 -81.2683 14.008 -80.8523 13.816C-80.4283 13.624 -79.9443 13.528 -79.4003 13.528C-78.6163 13.528 -77.9763 13.724 -77.4803 14.116C-76.9763 14.508 -76.6923 15.028 -76.6283 15.676H-77.8283C-77.8683 15.356 -78.0363 15.076 -78.3323 14.836C-78.6283 14.588 -79.0203 14.464 -79.5083 14.464C-79.9643 14.464 -80.3363 14.584 -80.6243 14.824C-80.9123 15.056 -81.0563 15.384 -81.0563 15.808C-81.0563 16.112 -80.9723 16.36 -80.8043 16.552C-80.6283 16.744 -80.4163 16.892 -80.1683 16.996C-79.9123 17.092 -79.5563 17.204 -79.1003 17.332C-78.5483 17.484 -78.1043 17.636 -77.7683 17.788C-77.4323 17.932 -77.1443 18.16 -76.9043 18.472C-76.6643 18.776 -76.5443 19.192 -76.5443 19.72C-76.5443 20.128 -76.6523 20.512 -76.8683 20.872C-77.0843 21.232 -77.4043 21.524 -77.8283 21.748C-78.2523 21.972 -78.7523 22.084 -79.3283 22.084ZM-69.2733 15.424L-73.2333 25.096H-74.3613L-73.0653 21.928L-75.7173 15.424H-74.5053L-72.4413 20.752L-70.4013 15.424H-69.2733ZM-68.5836 18.688C-68.5836 18.016 -68.4476 17.428 -68.1756 16.924C-67.9036 16.412 -67.5316 16.016 -67.0596 15.736C-66.5796 15.456 -66.0476 15.316 -65.4636 15.316C-64.8876 15.316 -64.3876 15.44 -63.9636 15.688C-63.5396 15.936 -63.2236 16.248 -63.0156 16.624V15.424H-61.9116V22H-63.0156V20.776C-63.2316 21.16 -63.5556 21.48 -63.9876 21.736C-64.4116 21.984 -64.9076 22.108 -65.4756 22.108C-66.0596 22.108 -66.5876 21.964 -67.0596 21.676C-67.5316 21.388 -67.9036 20.984 -68.1756 20.464C-68.4476 19.944 -68.5836 19.352 -68.5836 18.688ZM-63.0156 18.7C-63.0156 18.204 -63.1156 17.772 -63.3156 17.404C-63.5156 17.036 -63.7876 16.756 -64.1316 16.564C-64.4676 16.364 -64.8396 16.264 -65.2476 16.264C-65.6556 16.264 -66.0276 16.36 -66.3636 16.552C-66.6996 16.744 -66.9676 17.024 -67.1676 17.392C-67.3676 17.76 -67.4676 18.192 -67.4676 18.688C-67.4676 19.192 -67.3676 19.632 -67.1676 20.008C-66.9676 20.376 -66.6996 20.66 -66.3636 20.86C-66.0276 21.052 -65.6556 21.148 -65.2476 21.148C-64.8396 21.148 -64.4676 21.052 -64.1316 20.86C-63.7876 20.66 -63.5156 20.376 -63.3156 20.008C-63.1156 19.632 -63.0156 19.196 -63.0156 18.7ZM-58.9742 16.492C-58.7822 16.116 -58.5102 15.824 -58.1582 15.616C-57.7982 15.408 -57.3622 15.304 -56.8502 15.304V16.432H-57.1382C-58.3622 16.432 -58.9742 17.096 -58.9742 18.424V22H-60.0662V15.424H-58.9742V16.492ZM-55.0257 14.356C-55.2337 14.356 -55.4097 14.284 -55.5537 14.14C-55.6977 13.996 -55.7697 13.82 -55.7697 13.612C-55.7697 13.404 -55.6977 13.228 -55.5537 13.084C-55.4097 12.94 -55.2337 12.868 -55.0257 12.868C-54.8257 12.868 -54.6577 12.94 -54.5217 13.084C-54.3777 13.228 -54.3057 13.404 -54.3057 13.612C-54.3057 13.82 -54.3777 13.996 -54.5217 14.14C-54.6577 14.284 -54.8257 14.356 -55.0257 14.356ZM-54.4977 15.424V22H-55.5897V15.424H-54.4977ZM-53.0445 18.688C-53.0445 18.016 -52.9085 17.428 -52.6365 16.924C-52.3645 16.412 -51.9925 16.016 -51.5205 15.736C-51.0405 15.456 -50.5085 15.316 -49.9245 15.316C-49.3485 15.316 -48.8485 15.44 -48.4245 15.688C-48.0005 15.936 -47.6845 16.248 -47.4765 16.624V15.424H-46.3725V22H-47.4765V20.776C-47.6925 21.16 -48.0165 21.48 -48.4485 21.736C-48.8725 21.984 -49.3685 22.108 -49.9365 22.108C-50.5205 22.108 -51.0485 21.964 -51.5205 21.676C-51.9925 21.388 -52.3645 20.984 -52.6365 20.464C-52.9085 19.944 -53.0445 19.352 -53.0445 18.688ZM-47.4765 18.7C-47.4765 18.204 -47.5765 17.772 -47.7765 17.404C-47.9765 17.036 -48.2485 16.756 -48.5925 16.564C-48.9285 16.364 -49.3005 16.264 -49.7085 16.264C-50.1165 16.264 -50.4885 16.36 -50.8245 16.552C-51.1605 16.744 -51.4285 17.024 -51.6285 17.392C-51.8285 17.76 -51.9285 18.192 -51.9285 18.688C-51.9285 19.192 -51.8285 19.632 -51.6285 20.008C-51.4285 20.376 -51.1605 20.66 -50.8245 20.86C-50.4885 21.052 -50.1165 21.148 -49.7085 21.148C-49.3005 21.148 -48.9285 21.052 -48.5925 20.86C-48.2485 20.66 -47.9765 20.376 -47.7765 20.008C-47.5765 19.632 -47.4765 19.196 -47.4765 18.7ZM-41.2632 15.304C-40.7672 15.304 -40.3192 15.412 -39.9192 15.628C-39.5192 15.836 -39.2072 16.152 -38.9832 16.576C-38.7512 17 -38.6352 17.516 -38.6352 18.124V22H-39.7152V18.28C-39.7152 17.624 -39.8792 17.124 -40.2072 16.78C-40.5352 16.428 -40.9832 16.252 -41.5512 16.252C-42.1272 16.252 -42.5872 16.432 -42.9312 16.792C-43.2672 17.152 -43.4352 17.676 -43.4352 18.364V22H-44.5272V13.12H-43.4352V16.36C-43.2192 16.024 -42.9232 15.764 -42.5472 15.58C-42.1632 15.396 -41.7352 15.304 -41.2632 15.304Z" fill="white"/>
<g id="Button">
<g id=".Button">
<g clip-path="url(#clip3_184_57193)">
<rect x="-249" y="86" width="327" height="40" rx="6" fill="#852884"/>
</g>
</g>
</g>
</g>
</g>
</g>
<defs>
<linearGradient id="paint0_linear_184_57193" x1="-75.0739" y1="98.6479" x2="206.877" y2="37.1523" gradientUnits="userSpaceOnUse">
<stop stop-color="white" stop-opacity="0"/>
<stop offset="1" stop-color="white" stop-opacity="0.2"/>
</linearGradient>
<clipPath id="clip0_184_57193">
<rect width="375" height="812" fill="white" transform="translate(-273 -386)"/>
</clipPath>
<clipPath id="clip1_184_57193">
<rect width="375" height="812" fill="white" transform="translate(-273 -386)"/>
</clipPath>
<clipPath id="clip2_184_57193">
<rect width="375" height="233.71" fill="white" transform="translate(-273 197)"/>
</clipPath>
<clipPath id="clip3_184_57193">
<rect x="-249" y="86" width="327" height="40" rx="6" fill="white"/>
</clipPath>
</defs>
</svg>
