<svg width="375" height="229" viewBox="0 0 375 229" fill="none" xmlns="http://www.w3.org/2000/svg">
<g clip-path="url(#clip0_1527_8308)">
<path fill-rule="evenodd" clip-rule="evenodd" d="M35.7879 231.781C-4.98076 189.792 31.1439 168.767 50.1548 155.582C64.206 145.836 55.1866 122.381 62.2357 107.191C81.7964 65.0409 118.262 84.4322 155.698 75.8529C185.766 68.9626 195.929 34.0504 231.262 32.4909C284.276 30.1496 268.996 92.3081 287.529 109.881C310.365 131.534 325.558 130.158 341.373 150.472C361.958 176.909 355.285 210.633 344.534 231.934L35.7879 231.781Z" fill="url(#paint0_linear_1527_8308)"/>
<path fill-rule="evenodd" clip-rule="evenodd" d="M353.458 177.119C354.694 183.463 354.98 189.857 354.559 196.095C329.815 202.141 309.118 220.178 302.841 231.913L221.097 231.873C264.196 217.09 257.509 185.178 289.372 184.305C308.671 183.776 337.754 179.814 353.458 177.119ZM29.3147 224.514C40.3514 195.705 69.6423 189.87 102.875 193.362C137.96 197.048 166.252 184.292 182.363 173.448C206.234 157.381 216.732 102.322 278.654 95.5823C279.563 97.9132 280.774 100.187 282.402 102.389C283.777 105.348 285.438 107.897 287.529 109.88C302.673 124.241 314.456 128.472 325.287 135.618C305.387 138.514 281.672 133.094 265.706 143.716C234.184 164.688 220.99 207.33 191.826 231.858L35.7879 231.781C33.3661 229.287 31.216 226.866 29.3147 224.514ZM205.281 41.0833C220.656 40.5596 235.501 44.0465 254.888 46.6272C257.557 46.9826 260.831 46.8154 264.463 46.4015C267.84 51.1197 270.182 56.7002 271.991 62.6027C254.183 59.9185 235.855 55.8055 225.476 56.9501C207.009 58.9872 192.45 69.123 176.768 78.0284C159.521 87.8234 159.306 99.5291 116.555 107.19C104.094 109.422 91.5914 100.407 68.2082 96.8303C88.6825 68.4477 121.792 83.6215 155.698 75.8512C176.845 71.0054 188.146 52.2987 205.281 41.0822V41.0833Z" fill="url(#paint1_linear_1527_8308)"/>
<path fill-rule="evenodd" clip-rule="evenodd" d="M86.9556 103.022C84.7972 88.5444 99.1264 95.0552 100.951 84.8442C102.777 95.0552 117.106 88.5444 114.947 103.022H115.168L116.832 228.274H85.07L86.734 103.022H86.9546H86.9556Z" fill="#8843BB"/>
<path fill-rule="evenodd" clip-rule="evenodd" d="M90.7489 104.705L90.7207 104.702C87.4575 88.465 101.535 99.3689 100.952 84.8442C102.778 95.0552 117.106 88.5444 114.947 103.022H115.168L116.832 228.274H89.1936L90.7489 104.706V104.705Z" fill="#5E0D65"/>
<path fill-rule="evenodd" clip-rule="evenodd" d="M100.594 83.0012C99.1431 82.7012 97.9035 81.6267 97.4655 80.1048C96.8373 77.9203 98.101 75.6375 100.286 75.0103C100.65 74.9058 101.017 74.8535 101.379 74.8494C99.6114 75.3856 98.5944 77.2472 99.1065 79.0282C99.6229 80.8261 101.502 81.8661 103.3 81.3497C104.361 81.0445 105.157 80.2658 105.526 79.3094C105.387 80.963 104.249 82.4389 102.56 82.9249C102.205 83.0273 101.847 83.0786 101.495 83.0848L101.512 83.9116C101.848 84.035 102.079 84.2858 102.079 84.5764C102.079 84.867 101.861 85.1042 101.539 85.2307L101.606 88.4166H100.48L100.547 85.2307C100.225 85.1042 100.007 84.8586 100.007 84.5764C100.007 84.2942 100.238 84.035 100.574 83.9116L100.593 83.0002L100.594 83.0012ZM102.352 77.0402L102.608 77.8293H103.438L102.767 78.3175L103.023 79.1066L102.352 78.6185L101.681 79.1066L101.937 78.3175L101.266 77.8293H102.096L102.352 77.0402Z" fill="#8C40BC"/>
<path fill-rule="evenodd" clip-rule="evenodd" d="M100.969 85.5728C100.958 85.3376 100.953 85.0951 100.953 84.8442C100.963 85.0941 100.968 85.3365 100.969 85.5728C101.391 94.264 109.466 91.4084 111.568 97.1248C112.074 98.5003 112.234 100.372 111.859 103.022H112.489V228.274H89.1948L90.7501 104.706L90.7219 104.703C87.514 88.7451 101.057 99.0031 100.97 85.5738L100.969 85.5728Z" fill="#611C97"/>
<path fill-rule="evenodd" clip-rule="evenodd" d="M106.871 189.98C106.871 186.407 104.221 183.51 100.953 183.51C97.6842 183.51 95.0345 186.407 95.0345 189.98V199.366H106.872V189.98H106.871ZM106.871 156.262C106.871 152.688 104.221 149.792 100.953 149.792C97.6842 149.792 95.0345 152.688 95.0345 156.262V165.648H106.872V156.262H106.871ZM106.871 122.543C106.871 118.97 104.221 116.073 100.953 116.073C97.6842 116.073 95.0345 118.97 95.0345 122.543V131.93H106.872V122.543H106.871Z" fill="#5E0D65"/>
<path fill-rule="evenodd" clip-rule="evenodd" d="M116.833 104.415C116.833 103.645 116.208 103.021 115.439 103.021H86.4644C85.6951 103.021 85.07 103.646 85.07 104.415V107.202C85.07 107.972 85.6951 108.597 86.4644 108.597H115.439C116.208 108.597 116.833 107.973 116.833 107.202V104.415Z" fill="#5E0D65"/>
<path fill-rule="evenodd" clip-rule="evenodd" d="M114.69 104.415C114.69 103.645 114.065 103.021 113.296 103.021H86.4644C85.6951 103.021 85.07 103.646 85.07 104.415V107.202C85.07 107.972 85.6951 108.597 86.4644 108.597H113.296C114.065 108.597 114.69 107.973 114.69 107.202V104.415Z" fill="#8843BB"/>
<path fill-rule="evenodd" clip-rule="evenodd" d="M114.69 104.415C114.69 103.645 114.065 103.021 113.296 103.021H88.4453C87.676 103.021 87.051 103.646 87.051 104.415V107.202C87.051 107.972 87.675 108.597 88.4453 108.597H113.296C114.065 108.597 114.69 107.973 114.69 107.202V104.415Z" fill="#8437B5"/>
<path fill-rule="evenodd" clip-rule="evenodd" d="M240.284 103.022C238.125 88.5444 252.454 95.0552 254.279 84.8442C256.104 95.0552 270.434 88.5444 268.275 103.022H268.496L270.16 228.274H238.398L240.062 103.022H240.283H240.284Z" fill="#8843BB"/>
<path fill-rule="evenodd" clip-rule="evenodd" d="M244.078 104.705L244.05 104.702C240.786 88.465 254.864 99.3689 254.281 84.8442C256.106 95.0552 270.435 88.5444 268.276 103.022H268.497L270.161 228.274H242.523L244.078 104.706V104.705Z" fill="#5E0D65"/>
<path fill-rule="evenodd" clip-rule="evenodd" d="M253.922 83.0012C252.471 82.7012 251.23 81.6267 250.793 80.1048C250.165 77.9203 251.429 75.6375 253.614 75.0103C253.978 74.9058 254.345 74.8535 254.707 74.8494C252.939 75.3856 251.922 77.2472 252.435 79.0282C252.951 80.8261 254.83 81.8661 256.628 81.3497C257.689 81.0445 258.485 80.2658 258.854 79.3094C258.715 80.963 257.577 82.4389 255.888 82.9249C255.533 83.0273 255.175 83.0786 254.823 83.0848L254.84 83.9116C255.176 84.035 255.407 84.2858 255.407 84.5764C255.407 84.867 255.189 85.1042 254.867 85.2307L254.934 88.4166H253.808L253.875 85.2307C253.553 85.1042 253.334 84.8586 253.334 84.5764C253.334 84.2942 253.565 84.035 253.902 83.9116L253.921 83.0002L253.922 83.0012ZM255.68 77.0402L255.936 77.8293H256.766L256.095 78.3175L256.351 79.1066L255.68 78.6185L255.009 79.1066L255.265 78.3175L254.594 77.8293H255.424L255.68 77.0402Z" fill="#8C40BC"/>
<path fill-rule="evenodd" clip-rule="evenodd" d="M254.297 85.5728C254.286 85.3376 254.279 85.0951 254.279 84.8442C254.29 85.0941 254.295 85.3365 254.297 85.5728C254.718 94.264 262.794 91.4084 264.896 97.1248C265.402 98.5003 265.562 100.372 265.187 103.022H265.817V228.274H242.523L244.078 104.706L244.05 104.703C240.842 88.7451 254.385 99.0031 254.298 85.5738L254.297 85.5728Z" fill="#611C97"/>
<path fill-rule="evenodd" clip-rule="evenodd" d="M260.199 189.98C260.199 186.407 257.549 183.51 254.281 183.51C251.012 183.51 248.362 186.407 248.362 189.98V199.366H260.2V189.98H260.199ZM260.199 156.262C260.199 152.688 257.549 149.792 254.281 149.792C251.012 149.792 248.362 152.688 248.362 156.262V165.648H260.2V156.262H260.199ZM260.199 122.543C260.199 118.97 257.549 116.073 254.281 116.073C251.012 116.073 248.362 118.97 248.362 122.543V131.93H260.2V122.543H260.199Z" fill="#5E0D65"/>
<path fill-rule="evenodd" clip-rule="evenodd" d="M270.161 104.415C270.161 103.645 269.536 103.021 268.768 103.021H239.794C239.024 103.021 238.399 103.646 238.399 104.415V107.202C238.399 107.972 239.024 108.597 239.794 108.597H268.768C269.537 108.597 270.161 107.973 270.161 107.202V104.415Z" fill="#5E0D65"/>
<path fill-rule="evenodd" clip-rule="evenodd" d="M268.018 104.415C268.018 103.645 267.393 103.021 266.625 103.021H239.794C239.024 103.021 238.399 103.646 238.399 104.415V107.202C238.399 107.972 239.024 108.597 239.794 108.597H266.625C267.394 108.597 268.018 107.973 268.018 107.202V104.415Z" fill="#8843BB"/>
<path fill-rule="evenodd" clip-rule="evenodd" d="M268.018 104.415C268.018 103.645 267.393 103.021 266.625 103.021H241.774C241.005 103.021 240.381 103.646 240.381 104.415V107.202C240.381 107.972 241.006 108.597 241.774 108.597H266.625C267.394 108.597 268.018 107.973 268.018 107.202V104.415Z" fill="#8437B5"/>
<path fill-rule="evenodd" clip-rule="evenodd" d="M230.029 126.688H125.203V228.273H230.029V126.688ZM126.896 118.708C114.864 68.8128 170.685 87.3293 177.616 55.0125C183.158 80.8551 219.964 74.1916 228.337 95.9985C230.434 101.462 230.747 108.712 228.337 118.708C222.381 119.009 138.092 119.836 126.897 118.708H126.896Z" fill="#5E0D65"/>
<path fill-rule="evenodd" clip-rule="evenodd" d="M222.293 126.688H125.203V228.273H222.293V126.688ZM126.897 118.708C114.865 68.8128 170.686 87.3293 177.617 55.0125C179.902 90.903 235.954 69.3887 223.922 119.283C217.967 119.586 138.093 119.836 126.898 118.708H126.897Z" fill="#8843BB"/>
<path fill-rule="evenodd" clip-rule="evenodd" d="M176.508 46.7037C172.277 45.8288 168.659 42.6942 167.383 38.2561C165.552 31.8853 169.237 25.2271 175.608 23.3958C176.671 23.0906 177.743 22.938 178.798 22.9265C173.641 24.4912 170.676 29.9202 172.169 35.1172C173.677 40.3612 179.158 43.3955 184.402 41.8883C187.495 40.9988 189.819 38.7275 190.896 35.9377C190.49 40.7626 187.17 45.0658 182.242 46.4821C181.207 46.78 180.164 46.9316 179.136 46.9494L179.186 49.3618C180.169 49.7203 180.842 50.4541 180.842 51.2997C180.842 52.1453 180.205 52.8383 179.267 53.2072L179.461 62.4994H176.177L176.37 53.2072C175.432 52.8383 174.795 52.1223 174.795 51.2997C174.795 50.477 175.468 49.7203 176.451 49.3618L176.506 46.7037H176.508ZM181.637 29.315L182.386 31.6167H184.806L182.849 33.0392L183.597 35.3409L181.639 33.9183L179.68 35.3409L180.429 33.0392L178.47 31.6167H180.891L181.639 29.315H181.637Z" fill="#8843BB"/>
<path fill-rule="evenodd" clip-rule="evenodd" d="M222.293 126.688H130.441V228.273H222.293V126.688ZM135.568 119.282C123.536 69.3878 175.407 89.4512 177.616 55.0115C179.901 90.902 235.953 69.3878 223.921 119.282C217.966 119.585 146.764 120.411 135.568 119.282Z" fill="#611C97"/>
<path fill-rule="evenodd" clip-rule="evenodd" d="M208.424 188.844C208.424 173.833 194.631 161.664 177.616 161.664C160.602 161.664 146.809 173.833 146.809 188.844V228.273H208.424V188.844Z" fill="#5C0066"/>
<path fill-rule="evenodd" clip-rule="evenodd" d="M148.121 141.655C148.121 139.879 147.322 138.175 145.898 136.92C144.475 135.663 142.544 134.958 140.531 134.958C138.518 134.958 136.587 135.663 135.163 136.92C133.74 138.175 132.94 139.879 132.94 141.655V153.395H148.121V141.655ZM197.569 141.655C197.569 139.879 196.769 138.175 195.345 136.92C193.922 135.663 191.991 134.958 189.978 134.958C187.965 134.958 186.034 135.663 184.611 136.92C183.187 138.175 182.388 139.879 182.388 141.655V153.395H197.569V141.655ZM222.293 141.655C222.293 139.879 221.493 138.175 220.07 136.92C218.646 135.663 216.715 134.958 214.702 134.958C212.689 134.958 210.759 135.663 209.335 136.92C207.911 138.175 207.112 139.879 207.112 141.655V153.395H222.293V141.655ZM172.846 141.655C172.846 139.879 172.046 138.175 170.622 136.92C169.199 135.663 167.268 134.958 165.255 134.958C163.242 134.958 161.311 135.663 159.888 136.92C158.464 138.175 157.664 139.879 157.664 141.655V153.395H172.846V141.655Z" fill="#5C0066"/>
<path fill-rule="evenodd" clip-rule="evenodd" d="M234.968 121.494C234.968 118.628 232.642 116.3 229.775 116.3H125.456C122.59 116.3 120.262 118.628 120.262 121.494C120.262 124.36 122.589 126.688 125.456 126.688H229.775C232.641 126.688 234.968 124.36 234.968 121.494Z" fill="#5E0D65"/>
<path fill-rule="evenodd" clip-rule="evenodd" d="M222.293 121.494C222.293 118.628 219.966 116.3 217.099 116.3H125.457C122.591 116.3 120.263 118.628 120.263 121.494C120.263 124.36 122.591 126.688 125.457 126.688H217.099C219.965 126.688 222.293 124.36 222.293 121.494Z" fill="#8843BB"/>
<path fill-rule="evenodd" clip-rule="evenodd" d="M227.587 121.494C227.587 118.628 225.26 116.3 222.393 116.3H132.373C129.507 116.3 127.179 118.628 127.179 121.494C127.179 124.36 129.506 126.688 132.373 126.688H222.393C225.259 126.688 227.587 124.36 227.587 121.494Z" fill="#8437B5"/>
<path fill-rule="evenodd" clip-rule="evenodd" d="M9.94838 231.934C-1.92977 217.091 9.35782 201.663 19.6127 215.848C18.0532 210.07 11.5215 190.484 22.6679 190.816C28.5851 190.993 32.8476 198.863 35.4774 203.43C31.5337 191.86 29.4526 180.57 31.3278 168.187C32.3375 161.523 38.7124 155.587 45.471 160.174C56.4952 167.653 53.9605 194.421 54.1622 206.557C55.6715 202.745 56.5642 197.484 58.9619 194.053C65.0035 185.41 76.1844 179.724 78.3073 195.155C79.1257 201.105 77.7188 207.914 76.383 213.789C97.2325 197.034 106.033 217.043 99.2059 231.934H9.94838Z" fill="url(#paint2_linear_1527_8308)"/>
<path fill-rule="evenodd" clip-rule="evenodd" d="M9.78119 222.569C10.8097 222.99 11.8539 223.409 12.9107 223.781C11.717 221.824 10.515 219.867 9.13941 218.005C8.88019 217.654 8.95441 217.157 9.30561 216.897C9.65786 216.637 10.1533 216.712 10.4136 217.063C11.9689 219.168 13.3037 221.395 14.6552 223.605C15.2656 221.75 15.7945 219.867 16.0004 217.925C16.0464 217.49 16.4373 217.174 16.8721 217.22C17.3069 217.266 17.6226 217.657 17.5766 218.091C17.3122 220.584 16.5502 222.989 15.737 225.355C16.3181 226.28 16.9129 227.197 17.54 228.094C18.4912 229.454 19.6452 230.664 20.7249 231.932H18.6334C17.7993 230.982 16.9631 230.034 16.2418 229.002C15.5217 227.972 14.8433 226.916 14.1806 225.851C12.9483 225.497 11.1222 224.839 9.9223 224.365C7.88408 223.688 8.39938 222.399 9.78119 222.568V222.569ZM19.6671 204.905C18.6553 203.809 19.4999 202.999 20.2284 203.42C21.2966 204.035 22.5123 204.391 23.685 204.816C22.6283 203.038 21.7994 201.378 21.4409 200.053C21.327 199.631 21.5768 199.196 21.999 199.081C22.4213 198.967 22.8561 199.217 22.9711 199.639C23.3411 201.007 24.2306 202.736 25.3564 204.579C25.6198 202.976 25.9218 201.251 25.9187 199.734C25.9187 199.297 26.272 198.942 26.7089 198.941C27.1458 198.94 27.5023 199.294 27.5023 199.731C27.5064 201.878 26.9316 204.433 26.665 206.506C26.6608 206.538 26.6546 206.568 26.6472 206.598C28.9844 210.113 31.7836 213.712 33.2302 215.809C34.3653 217.455 35.3991 219.166 36.3879 220.906C36.715 218.029 36.0806 215.06 36.7161 212.197C37.1373 210.298 38.3247 211.058 38.077 214.555C37.9547 217.408 38.3184 220.279 37.6035 223.072L37.6004 223.083C39.232 226.06 40.8061 229.071 42.6071 231.932H40.7455C39.1139 229.249 37.6537 226.452 36.1349 223.69C32.9103 223.789 29.506 223.87 26.4121 223.084C25.9877 222.976 25.7316 222.545 25.8393 222.121C25.9469 221.698 26.3786 221.441 26.8019 221.548C29.4955 222.232 32.4358 222.215 35.2684 222.133C34.2232 220.281 33.133 218.459 31.9257 216.71C30.4028 214.502 27.4427 210.662 25.024 206.958C23.2157 206.354 21.3949 205.688 19.6661 204.905H19.6671ZM53.116 231.934C52.2881 228.191 50.8938 222.53 49.2914 216.137C46.7536 214.057 43.6722 212.666 41.0873 210.634C40.7434 210.364 40.6838 209.866 40.9545 209.522C41.2242 209.178 41.7228 209.118 42.0667 209.389C44.1321 211.012 46.5131 212.231 48.6831 213.713C45.9153 202.71 42.6802 190.055 40.6587 181.327C38.8421 180.374 37.0913 179.353 35.4743 178.073C35.1315 177.801 35.074 177.302 35.3458 176.959C35.6175 176.616 36.1161 176.559 36.4589 176.831C37.6369 177.764 38.8912 178.55 40.1905 179.275C39.3449 175.521 38.793 172.721 38.7052 171.437C38.6749 171.001 39.0052 170.623 39.441 170.593C39.8769 170.562 40.2553 170.893 40.2856 171.329C40.3765 172.647 40.9577 175.57 41.8451 179.486C43.2603 177.842 44.5073 176.065 45.9257 174.419C46.2111 174.088 46.7117 174.051 47.0431 174.337C47.3744 174.622 47.411 175.123 47.1257 175.454C45.4564 177.39 44.0213 179.503 42.2789 181.378C44.2836 190.006 47.4507 202.393 50.182 213.233C51.1342 211.425 52.1042 209.593 52.9027 207.749C53.3219 206.781 54.4183 206.775 54.0525 208.627C53.118 210.608 51.7613 213.609 50.7621 215.539C52.4386 222.215 53.8967 228.124 54.735 231.935H53.118L53.116 231.934ZM59.6905 231.934C60.2738 229.434 60.9375 226.955 61.6326 224.488C60.0804 220.707 58.7049 216.818 58.2481 212.729C58.2 212.294 58.5125 211.902 58.9474 211.854C59.3822 211.806 59.7742 212.118 59.8222 212.553C60.187 215.817 61.1675 218.948 62.3434 221.997C63.4053 218.32 64.5039 214.654 65.478 210.953C66.3571 207.613 67.0919 204.16 67.9689 200.76C67.8779 200.665 67.811 200.548 67.7755 200.419C67.2623 198.537 66.5317 196.732 65.8721 194.899C65.7247 194.487 65.938 194.033 66.3498 193.885C66.7616 193.738 67.2152 193.951 67.3637 194.363C67.8079 195.598 68.2824 196.821 68.7047 198.062C69.243 196.203 69.8482 194.373 70.5694 192.6C70.7346 192.196 71.1966 192 71.6021 192.166C72.0066 192.331 72.2021 192.793 72.037 193.198C71.3471 194.893 70.7659 196.64 70.2475 198.417C71.3105 197.843 72.3704 197.262 73.4553 196.729C73.6874 196.615 73.9487 196.626 74.163 196.733C74.2173 197.162 74.2487 197.613 74.2591 198.089C74.2267 198.112 74.1912 198.133 74.1536 198.151C72.6327 198.898 71.1631 199.739 69.6622 200.523C68.7089 204.129 67.9438 207.808 67.0093 211.356C65.9578 215.348 64.7631 219.298 63.6238 223.266C65.547 222.161 67.5163 221.106 69.5305 220.161C69.359 220.851 69.2033 221.514 69.0685 222.142C66.9989 223.163 64.9805 224.293 63.0102 225.459C63.0071 225.461 63.004 225.462 63.0008 225.464C62.4008 227.61 61.8291 229.764 61.3159 231.935H59.6884L59.6905 231.934ZM80.2034 231.934H81.9406L82.041 231.801C85.0492 231.16 88.0302 230.417 91.0771 229.976C91.5098 229.913 91.8109 229.511 91.7482 229.079C91.6854 228.647 91.2841 228.346 90.8513 228.408C88.3678 228.767 85.9282 229.324 83.4824 229.865C85.7391 226.782 87.8891 223.59 89.9054 220.326C92.2018 219.669 94.5755 219.28 96.9169 218.818C97.3454 218.734 97.6256 218.317 97.5409 217.888C97.4562 217.459 97.0392 217.179 96.6106 217.264C94.771 217.627 92.9126 217.946 91.0855 218.382C92.0994 216.683 93.0756 214.968 94.0101 213.24C94.2181 212.855 94.0749 212.374 93.6902 212.166C93.3056 211.958 92.8248 212.101 92.6168 212.486C91.6541 214.264 90.6486 216.028 89.6023 217.775C89.158 216.182 88.9082 214.546 88.5508 212.916C88.4577 212.488 88.0344 212.217 87.6069 212.312C87.1794 212.405 86.9087 212.828 87.0027 213.254C87.4689 215.385 87.771 217.521 88.511 219.568C86.3746 223.02 84.0865 226.393 81.6793 229.641C81.0846 226.904 80.6686 224.104 80.1846 221.359C80.1083 220.929 79.6975 220.641 79.2669 220.716C78.8363 220.793 78.5488 221.203 78.6241 221.634C79.1896 224.842 79.6662 228.125 80.4334 231.297L80.3623 231.39C80.2379 231.552 80.1867 231.747 80.2024 231.935L80.2034 231.934ZM73.8034 218.805C73.9017 218.887 73.9811 218.995 74.0302 219.123C74.1881 219.531 73.9853 219.99 73.5776 220.148C72.5554 220.543 71.5457 220.976 70.5464 221.437C71.4819 220.623 72.5867 219.724 73.8045 218.805H73.8034Z" fill="#0F544F"/>
<path fill-rule="evenodd" clip-rule="evenodd" d="M361.695 231.913C373.573 217.071 362.286 201.642 352.031 215.828C353.59 210.05 360.122 190.463 348.975 190.795C343.059 190.972 338.796 198.843 336.166 203.41C340.11 191.841 342.191 180.551 340.316 168.168C339.306 161.503 332.931 155.567 326.172 160.154C315.148 167.634 317.683 194.401 317.481 206.538C315.973 202.726 315.079 197.464 312.681 194.033C306.64 185.39 295.459 179.704 293.336 195.135C292.518 201.086 293.925 207.894 295.26 213.77C274.411 197.015 265.61 217.024 272.437 231.914H361.696L361.695 231.913Z" fill="url(#paint3_linear_1527_8308)"/>
<path fill-rule="evenodd" clip-rule="evenodd" d="M361.861 222.547C360.832 222.968 359.788 223.387 358.732 223.759C359.925 221.802 361.127 219.846 362.503 217.983C362.763 217.632 362.688 217.135 362.337 216.875C361.985 216.615 361.489 216.69 361.229 217.041C359.673 219.146 358.339 221.373 356.987 223.583C356.378 221.728 355.848 219.845 355.642 217.903C355.596 217.468 355.205 217.152 354.771 217.198C354.336 217.244 354.021 217.635 354.067 218.069C354.331 220.562 355.093 222.967 355.906 225.333C355.325 226.258 354.73 227.175 354.103 228.072C353.152 229.432 351.998 230.642 350.918 231.91H353.01C353.844 230.96 354.68 230.012 355.401 228.98C356.122 227.95 356.8 226.894 357.462 225.829C358.694 225.474 360.52 224.817 361.72 224.342C363.758 223.665 363.243 222.377 361.861 222.544V222.547ZM351.975 204.883C352.987 203.787 352.142 202.978 351.414 203.398C350.346 204.013 349.13 204.37 347.957 204.794C349.014 203.016 349.843 201.356 350.201 200.031C350.315 199.609 350.065 199.174 349.643 199.059C349.221 198.945 348.786 199.195 348.671 199.617C348.301 200.984 347.412 202.714 346.286 204.557C346.022 202.955 345.72 201.229 345.723 199.712C345.723 199.275 345.37 198.919 344.933 198.919C344.496 198.919 344.14 199.272 344.14 199.709C344.136 201.856 344.711 204.411 344.977 206.484C344.981 206.516 344.987 206.546 344.995 206.576C342.658 210.091 339.859 213.69 338.412 215.787C337.276 217.433 336.243 219.144 335.254 220.884C334.927 218.007 335.562 215.038 334.926 212.175C334.505 210.276 333.317 211.036 333.565 214.533C333.687 217.386 333.324 220.257 334.039 223.05L334.042 223.061C332.41 226.038 330.836 229.049 329.035 231.91H330.897C332.528 229.226 333.989 226.43 335.507 223.668C338.732 223.767 342.136 223.848 345.23 223.062C345.653 222.954 345.911 222.523 345.803 222.099C345.695 221.676 345.264 221.419 344.84 221.526C342.147 222.21 339.206 222.193 336.374 222.111C337.419 220.259 338.509 218.437 339.716 216.688C341.24 214.48 344.201 210.64 346.618 206.936C348.426 206.332 350.247 205.666 351.976 204.883H351.975ZM318.526 231.912C319.354 228.169 320.748 222.508 322.351 216.115C324.888 214.035 327.97 212.644 330.555 210.612C330.899 210.342 330.958 209.844 330.688 209.5C330.417 209.156 329.919 209.096 329.575 209.367C327.51 210.99 325.129 212.209 322.959 213.691C325.728 202.689 328.962 190.033 330.983 181.305C332.8 180.352 334.551 179.331 336.168 178.051C336.511 177.779 336.568 177.28 336.296 176.937C336.025 176.595 335.526 176.537 335.183 176.809C334.005 177.742 332.751 178.528 331.452 179.253C332.297 175.499 332.849 172.699 332.937 171.415C332.967 170.979 332.637 170.6 332.201 170.571C331.765 170.54 331.387 170.871 331.357 171.307C331.266 172.625 330.684 175.548 329.797 179.464C328.382 177.82 327.135 176.043 325.716 174.397C325.431 174.066 324.93 174.029 324.599 174.315C324.268 174.6 324.231 175.101 324.516 175.432C326.186 177.368 327.621 179.481 329.363 181.356C327.359 189.984 324.191 202.371 321.46 213.211C320.508 211.404 319.538 209.571 318.739 207.727C318.32 206.759 317.223 206.753 317.59 208.605C318.524 210.586 319.881 213.587 320.88 215.517C319.204 222.193 317.745 228.102 316.907 231.913H318.524L318.526 231.912ZM311.952 231.912C311.368 229.412 310.705 226.933 310.01 224.466C311.562 220.685 312.937 216.796 313.394 212.707C313.442 212.272 313.13 211.88 312.695 211.832C312.26 211.784 311.868 212.096 311.82 212.531C311.455 215.795 310.475 218.926 309.299 221.975C308.237 218.299 307.138 214.632 306.164 210.931C305.285 207.591 304.55 204.138 303.673 200.738C303.764 200.643 303.831 200.526 303.867 200.397C304.38 198.515 305.111 196.71 305.77 194.877C305.918 194.465 305.704 194.011 305.292 193.863C304.881 193.716 304.427 193.929 304.279 194.341C303.834 195.575 303.36 196.799 302.937 198.04C302.399 196.181 301.794 194.351 301.072 192.578C300.907 192.173 300.445 191.978 300.039 192.144C299.633 192.309 299.439 192.771 299.604 193.176C300.294 194.871 300.876 196.618 301.394 198.395C300.331 197.821 299.271 197.24 298.186 196.707C297.954 196.593 297.692 196.604 297.478 196.711C297.424 197.14 297.392 197.592 297.382 198.066C297.415 198.089 297.45 198.11 297.488 198.129C299.008 198.876 300.479 199.717 301.979 200.501C302.932 204.107 303.697 207.786 304.632 211.334C305.683 215.326 306.878 219.276 308.017 223.244C306.094 222.139 304.125 221.083 302.111 220.139C302.282 220.829 302.438 221.492 302.573 222.12C304.642 223.141 306.661 224.271 308.631 225.437C308.634 225.439 308.637 225.44 308.64 225.442C309.24 227.588 309.812 229.742 310.325 231.913H311.953L311.952 231.912ZM291.439 231.912H289.702L289.601 231.779C286.593 231.138 283.612 230.395 280.565 229.954C280.132 229.892 279.831 229.49 279.894 229.057C279.957 228.625 280.359 228.324 280.792 228.386C283.275 228.745 285.715 229.302 288.161 229.843C285.904 226.76 283.754 223.568 281.738 220.305C279.441 219.647 277.068 219.258 274.725 218.796C274.297 218.712 274.017 218.295 274.101 217.866C274.186 217.437 274.603 217.157 275.032 217.242C276.871 217.605 278.73 217.925 280.557 218.359C279.543 216.66 278.568 214.945 277.632 213.217C277.424 212.832 277.567 212.351 277.952 212.143C278.337 211.935 278.817 212.078 279.025 212.463C279.988 214.241 280.994 216.005 282.04 217.752C282.484 216.159 282.734 214.523 283.091 212.893C283.185 212.465 283.608 212.194 284.034 212.289C284.462 212.382 284.732 212.805 284.638 213.231C284.172 215.362 283.87 217.498 283.13 219.545C285.267 222.997 287.555 226.37 289.961 229.618C290.556 226.881 290.973 224.081 291.455 221.336C291.532 220.906 291.943 220.618 292.373 220.693C292.804 220.77 293.092 221.18 293.016 221.611C292.451 224.82 291.974 228.102 291.207 231.274L291.278 231.367C291.401 231.529 291.453 231.724 291.438 231.912H291.439ZM297.839 218.783C297.74 218.865 297.661 218.974 297.612 219.101C297.454 219.509 297.657 219.968 298.065 220.126C299.087 220.521 300.096 220.954 301.096 221.415C300.16 220.601 299.055 219.702 297.838 218.783H297.839Z" fill="#0F544F"/>
<path fill-rule="evenodd" clip-rule="evenodd" d="M148.988 35.1897C147.893 48.2385 138.91 59.8794 125.583 63.7091C108.352 68.6615 90.3425 58.692 85.3901 41.4611C80.4377 24.2303 90.4073 6.22073 107.638 1.26837C110.514 0.441581 113.411 0.0308004 116.267 0.000488281C102.319 4.23268 94.2987 18.9173 98.3375 32.9717C102.414 47.1556 117.239 55.3608 131.422 51.2843C139.789 48.8792 146.075 42.7353 148.987 35.1897H148.988ZM126.32 13.9158L128.626 21.0109H136.085L130.05 25.3957L132.355 32.4908L126.32 28.1061L120.285 32.4908L122.59 25.3957L116.555 21.0109H124.015L126.32 13.9158Z" fill="url(#paint4_linear_1527_8308)"/>
<path fill-rule="evenodd" clip-rule="evenodd" d="M177.211 87.1104L183.687 107.79L168.063 120.454L163.418 112.562L160.287 98.3101L177.211 87.1104Z" fill="#FFC4CD"/>
<path fill-rule="evenodd" clip-rule="evenodd" d="M178.529 91.3216C174.406 100.538 163.936 103.88 161.649 104.512L160.287 98.3112L177.211 87.1104L178.529 91.3216Z" fill="#D4667F"/>
<path fill-rule="evenodd" clip-rule="evenodd" d="M174.1 85.232C174.197 82.0231 175.13 79.9473 178.02 80.2347C180.448 80.4762 181.316 81.4723 181.454 83.6182C181.628 86.3212 178.887 89.4015 176.772 88.0929C176.371 89.3848 175.694 92.995 171.986 96.5666C168.731 99.7013 159.637 100.719 154.764 97.3924C149.637 93.8919 151.18 83.5398 152.14 72.3118H174.1V85.232Z" fill="#FFC4CD"/>
<path fill-rule="evenodd" clip-rule="evenodd" d="M151.882 75.2081C151.969 74.2528 152.057 73.2859 152.14 72.3118H174.1V85.232C174.197 82.0231 175.131 79.9473 178.02 80.2347C180.448 80.4762 181.316 81.4723 181.454 83.6182C181.628 86.3212 178.887 89.4015 176.772 88.0929C176.475 89.0513 176.026 91.284 174.302 93.8302C174.504 89.9565 171.651 89.1653 170.815 85.8811C170.177 83.3788 170.497 77.5777 170.497 77.5777C165.763 79.0212 160.963 76.1635 160.963 76.1635C157.228 77.2066 153.435 75.8781 151.882 75.2081Z" fill="#ED9DB0"/>
<path d="M157.036 84.9298C157.418 84.9298 157.727 84.343 157.727 83.6191C157.727 82.8952 157.418 82.3083 157.036 82.3083C156.655 82.3083 156.345 82.8952 156.345 83.6191C156.345 84.343 156.655 84.9298 157.036 84.9298Z" fill="#0B0669"/>
<path d="M166.036 84.9298C166.417 84.9298 166.727 84.343 166.727 83.6191C166.727 82.8952 166.417 82.3083 166.036 82.3083C165.654 82.3083 165.345 82.8952 165.345 83.6191C165.345 84.343 165.654 84.9298 166.036 84.9298Z" fill="#0B0669"/>
<path fill-rule="evenodd" clip-rule="evenodd" d="M154.339 82.0344C155.002 80.9128 157.013 79.854 159.415 80.4717C159.583 80.5146 159.754 80.4132 159.797 80.246C159.84 80.0787 159.738 79.9073 159.571 79.8645C156.829 79.1589 154.556 80.4352 153.798 81.7145C153.71 81.864 153.76 82.0563 153.909 82.1441C154.059 82.2319 154.251 82.1828 154.339 82.0333V82.0344Z" fill="#CE6A31"/>
<path fill-rule="evenodd" clip-rule="evenodd" d="M169.273 81.7155C168.516 80.4361 166.242 79.1599 163.5 79.8654C163.333 79.9083 163.231 80.0797 163.274 80.2469C163.317 80.4142 163.489 80.5156 163.656 80.4727C166.058 79.855 168.069 80.9138 168.733 82.0354C168.82 82.1848 169.013 82.234 169.162 82.1462C169.312 82.0584 169.361 81.865 169.273 81.7166V81.7155Z" fill="#CE6A31"/>
<path fill-rule="evenodd" clip-rule="evenodd" d="M161.24 84.8264C161.24 84.8264 160.467 87.0308 160.027 88.6447C159.826 89.3805 159.701 90.0025 159.723 90.2732C159.751 90.6192 159.934 90.9076 160.242 91.1062C160.627 91.354 161.234 91.4585 161.957 91.3111C162.127 91.2766 162.236 91.1115 162.202 90.9411C162.167 90.7718 162.001 90.662 161.832 90.6965C161.384 90.7874 160.997 90.7665 160.714 90.6484C160.506 90.5606 160.363 90.4185 160.347 90.222C160.328 89.9868 160.456 89.4485 160.631 88.8088C161.067 87.2127 161.831 85.0334 161.831 85.0334C161.888 84.8703 161.803 84.6916 161.638 84.6341C161.475 84.5766 161.296 84.6623 161.239 84.8264H161.24Z" fill="#E66B88"/>
<path fill-rule="evenodd" clip-rule="evenodd" d="M161.951 95.2967C162.807 95.5402 163.641 95.4952 164.232 95.0928C164.643 94.8137 164.948 94.3643 165.064 93.7006C165.093 93.5302 164.979 93.3671 164.809 93.3379C164.638 93.3075 164.475 93.4225 164.446 93.5929C164.366 94.057 164.166 94.38 163.879 94.5744C163.424 94.8838 162.78 94.8806 162.123 94.6935C161.956 94.6465 161.783 94.7427 161.735 94.9089C161.688 95.0751 161.784 95.2486 161.95 95.2967H161.951Z" fill="#F8384E"/>
<path fill-rule="evenodd" clip-rule="evenodd" d="M177.196 85.385C177.171 84.9073 177.307 84.3346 177.761 84.0272C178.072 83.8172 178.522 83.7409 179.149 83.8746C179.29 83.905 179.429 83.8151 179.46 83.674C179.49 83.5328 179.4 83.3938 179.259 83.3635C178.449 83.1911 177.871 83.3238 177.47 83.5945C176.857 84.0084 176.641 84.7683 176.675 85.4122C176.683 85.5564 176.806 85.6672 176.95 85.6589C177.094 85.6516 177.205 85.5282 177.197 85.384L177.196 85.385Z" fill="#D15170"/>
<path fill-rule="evenodd" clip-rule="evenodd" d="M174.364 84.9305C173.895 86.8736 172.522 89.0958 171.986 86.582C171.683 85.1563 171.206 79.604 171.297 77.5281C169.459 78.8786 164.792 76.8832 164.782 74.7164C163.14 76.4526 157.372 76.5278 156.559 73.6262C153.713 75.6613 148.809 75.0634 150.47 70.1581L155.726 62.1787L181.46 75.0802L180.989 81.6767C180.989 81.6767 179.241 79.9395 177.376 80.4224C175.663 80.8666 174.364 84.9295 174.364 84.9295V84.9305Z" fill="#7B4217"/>
<path fill-rule="evenodd" clip-rule="evenodd" d="M181.492 79.3671C181.492 79.3671 170.145 70.1753 149.982 70.4575C149.982 70.4575 150.934 64.2027 153.103 59.265C154.672 55.6945 158.591 53.7796 162.371 54.737C168.311 56.2108 176.13 58.6703 181.461 61.2384C184.95 62.9025 186.745 66.8273 185.722 70.5557C184.522 74.9301 181.492 79.3661 181.492 79.3661V79.3671Z" fill="#D8E2F9"/>
<path fill-rule="evenodd" clip-rule="evenodd" d="M183.662 62.7903C185.649 64.7721 186.501 67.7217 185.722 70.5564C184.522 74.9308 181.492 79.3668 181.492 79.3668C181.492 79.3668 180.064 78.2097 177.32 76.7297C181.868 73.0034 183.542 68.8841 183.661 62.7903H183.662Z" fill="#BECEF5"/>
<path fill-rule="evenodd" clip-rule="evenodd" d="M82.3893 137.245C80.0375 136.966 78.7006 136.473 76.8526 135.984C75.3579 135.588 68.7185 130.363 66.6019 133.489C65.6706 134.864 66.8486 137.158 69.8735 138.751C67.5562 138.195 63.5216 137.501 61.4625 138.751C58.2274 140.716 54.8722 156.849 58.9518 160.056C63.0031 163.24 70.1453 164.178 76.8526 162.553L82.3893 137.245Z" fill="#FFC4CD"/>
<path fill-rule="evenodd" clip-rule="evenodd" d="M78.8605 136.542C79.0968 136.607 79.3351 136.67 79.5797 136.73C79.219 141.035 75.9819 158.589 74.9743 162.941C70.8592 163.641 66.7033 163.403 63.3042 162.296C62.862 158.176 67.1068 143.138 68.8795 138.751C68.9109 138.671 68.9569 138.608 69.0143 138.556C69.3206 138.62 69.6091 138.686 69.8756 138.751C69.6708 138.643 69.4742 138.531 69.2851 138.417C69.9519 138.24 71.1132 138.751 71.1132 138.751C73.0657 147.963 68.9454 160.433 69.7314 160.732C70.9052 161.178 74.504 142.297 78.8605 136.543V136.542Z" fill="#EEA1B3"/>
<path fill-rule="evenodd" clip-rule="evenodd" d="M63.4107 166.322C64.1883 157.775 64.6848 146.297 72.9882 133.58C73.1774 133.291 73.0959 132.902 72.8064 132.713C72.5168 132.523 72.128 132.605 71.9388 132.894C63.4891 145.837 62.9539 157.511 62.1627 166.21C62.1313 166.554 62.3853 166.86 62.7302 166.891C63.0752 166.922 63.3804 166.668 63.4117 166.323L63.4107 166.322Z" fill="white"/>
<path fill-rule="evenodd" clip-rule="evenodd" d="M47.2189 177.099C49.2822 166.71 57.8564 172.327 62.8464 164.067C66.2716 173.088 75.7144 169.104 75.8785 179.694C75.8732 180.174 47.5231 177.082 47.2189 177.099Z" fill="#ECB884"/>
<path fill-rule="evenodd" clip-rule="evenodd" d="M47.2189 177.099C49.2822 166.71 57.8564 172.327 62.8464 164.067C66.2716 173.088 75.7144 169.104 75.8785 179.694C75.8732 180.174 47.5231 177.082 47.2189 177.099Z" fill="url(#paint5_linear_1527_8308)"/>
<path fill-rule="evenodd" clip-rule="evenodd" d="M43.804 214.799L72.4636 217.395C72.2817 219.397 71.3128 221.245 69.7689 222.533C68.2251 223.821 66.2329 224.442 64.2302 224.261C60.045 223.881 54.8564 223.412 50.6713 223.033C48.6686 222.851 46.8206 221.882 45.5329 220.338C44.2451 218.794 43.6243 216.802 43.8051 214.799H43.804Z" fill="url(#paint6_linear_1527_8308)"/>
<path fill-rule="evenodd" clip-rule="evenodd" d="M47.2189 179.633L75.4227 182.188L72.4741 214.738L44.2703 212.183L47.2189 179.633Z" fill="url(#paint7_linear_1527_8308)"/>
<path fill-rule="evenodd" clip-rule="evenodd" d="M75.0485 186.318L73.0458 208.429C72.8567 208.835 72.5609 209.198 72.1762 209.486C71.5501 209.953 70.7421 210.179 69.931 210.113C69.1189 210.047 68.3694 209.695 67.8478 209.135C67.3263 208.575 67.0744 207.852 67.1475 207.125C67.5353 203.295 68.2482 196.253 68.7468 191.321C69.0415 188.407 71.825 186.231 75.0496 186.319L75.0485 186.318ZM56.7066 188.424C56.9062 186.451 58.8567 184.994 61.0611 185.173C63.2665 185.352 64.8919 187.098 64.6923 189.071C64.2323 193.613 63.4442 201.404 62.9843 205.945C62.7847 207.919 60.8353 209.375 58.6298 209.196C56.4244 209.017 54.799 207.272 54.9987 205.298C55.4586 200.757 56.2467 192.964 56.7066 188.424ZM46.8207 184.02C50.1404 184.346 52.5706 186.995 52.2685 189.984C51.8723 193.897 51.3424 199.137 50.9463 203.049C50.6515 205.963 47.868 208.139 44.6434 208.052L46.8196 184.019L46.8207 184.02Z" fill="#FFF5DE"/>
<path fill-rule="evenodd" clip-rule="evenodd" d="M42.5341 212.86C42.578 212.38 42.8101 211.937 43.1801 211.629C43.5501 211.32 44.0278 211.171 44.5076 211.215C50.0662 211.719 66.858 213.239 72.4166 213.743C72.8964 213.786 73.3396 214.019 73.6479 214.389C73.9563 214.759 74.1057 215.237 74.0618 215.717C74.0179 216.196 73.7859 216.64 73.4159 216.948C73.0458 217.256 72.5682 217.406 72.0884 217.362C66.5298 216.858 49.739 215.337 44.1794 214.833C43.6996 214.79 43.2564 214.558 42.9481 214.188C42.6397 213.817 42.4902 213.34 42.5341 212.86ZM45.6322 178.654C45.6761 178.175 45.9082 177.732 46.2782 177.423C46.6482 177.115 47.1259 176.965 47.6057 177.009C53.1643 177.513 69.9561 179.034 75.5147 179.537C75.9945 179.581 76.4377 179.813 76.746 180.183C77.0544 180.553 77.2038 181.03 77.1599 181.51C77.116 181.99 76.884 182.433 76.514 182.741C76.144 183.05 75.6663 183.199 75.1865 183.155C69.6279 182.651 52.8361 181.131 47.2775 180.628C46.7977 180.584 46.3545 180.352 46.0462 179.982C45.7378 179.612 45.5883 179.134 45.6322 178.654Z" fill="#834202"/>
<path fill-rule="evenodd" clip-rule="evenodd" d="M69.8745 138.75C68.1122 137.822 69.8745 138.75 69.8745 138.75C71.0504 138.681 71.5594 158.021 64.5532 162.655C62.3812 162.108 60.4548 161.236 58.9528 160.056C54.8732 156.849 58.2284 140.715 61.4634 138.751C63.5226 137.501 67.5572 138.195 69.8745 138.751V138.75Z" fill="#FFC4CD"/>
<path fill-rule="evenodd" clip-rule="evenodd" d="M68.2253 157.667L60.2992 156.605C60.0138 156.566 59.8121 156.304 59.8508 156.018C59.8894 155.731 60.1528 155.53 60.4382 155.569L68.612 156.665C68.4897 157.006 68.3611 157.341 68.2253 157.667ZM70.0346 150.808L61.0214 149.601C60.7361 149.562 60.5344 149.299 60.573 149.013C60.6117 148.728 60.8741 148.526 61.1605 148.565L70.182 149.773C70.137 150.117 70.0889 150.462 70.0356 150.808H70.0346ZM70.5739 143.826L61.3935 142.596C61.1082 142.557 60.9065 142.295 60.9451 142.008C60.9838 141.722 61.2472 141.521 61.5326 141.56L70.5624 142.77C70.5708 143.108 70.575 143.46 70.5739 143.826Z" fill="#E36F8A"/>
<path fill-rule="evenodd" clip-rule="evenodd" d="M262.485 86.5883C263.463 84.432 263.736 83.0335 264.272 81.1991C264.707 79.7148 263.674 71.3299 267.445 71.1376C269.103 71.0529 270.457 73.2479 270.253 76.6606C270.976 74.3903 272.472 70.5783 274.607 69.4652C277.963 67.7154 293.503 73.1977 294.135 78.3487C294.761 83.4631 291.865 90.0596 287.003 94.9566L262.485 86.5894V86.5883Z" fill="#FFC4CD"/>
<path fill-rule="evenodd" clip-rule="evenodd" d="M263.711 83.2051C263.644 83.4413 263.574 83.6775 263.5 83.9179C267.369 85.838 282.654 93.5655 286.899 94.9567C289.629 91.799 292.985 86.7118 293.797 83.2301C290.501 80.7184 275.439 76.5636 270.767 75.8089C270.684 75.7953 270.605 75.8016 270.531 75.8235C270.428 76.1183 270.335 76.4005 270.251 76.6608C270.265 76.4298 270.272 76.204 270.271 75.9835C269.774 76.4622 269.609 77.7207 269.609 77.7207C276.479 84.1604 289.724 87.3254 289.13 87.9191C285.608 91.4416 270.888 82.4567 263.709 83.2051H263.711Z" fill="#EEA1B3"/>
<path fill-rule="evenodd" clip-rule="evenodd" d="M297.397 102.846C292.829 89.8919 290.909 86.1092 271.163 73.099C270.875 72.9088 271.056 72.4206 271.345 72.2315C271.635 72.0423 271.909 72.2503 272.213 72.4133C289.3 81.5665 298.383 91.0364 298.646 102.732C298.653 103.078 298.423 103.382 298.078 103.413C297.733 103.445 297.428 103.191 297.397 102.846Z" fill="#2C4184"/>
<path fill-rule="evenodd" clip-rule="evenodd" d="M314.567 109.745C310.699 99.8848 303.253 106.93 296.881 99.6831C295.106 109.169 285.107 106.917 286.819 117.37C286.909 117.841 314.265 109.783 314.567 109.746V109.745Z" fill="url(#paint8_linear_1527_8308)"/>
<path fill-rule="evenodd" clip-rule="evenodd" d="M324.596 146.247L296.848 153.871C297.381 155.81 298.662 157.457 300.409 158.451C302.157 159.445 304.228 159.705 306.167 159.173C310.219 158.059 315.242 156.679 319.295 155.565C321.234 155.032 322.881 153.752 323.875 152.004C324.869 150.257 325.128 148.186 324.596 146.247Z" fill="url(#paint9_linear_1527_8308)"/>
<path fill-rule="evenodd" clip-rule="evenodd" d="M315.016 112.239L287.709 119.742L296.367 151.257L323.674 143.754L315.016 112.239Z" fill="url(#paint10_linear_1527_8308)"/>
<path fill-rule="evenodd" clip-rule="evenodd" d="M288.807 123.74L294.69 145.149C294.947 145.515 295.303 145.821 295.733 146.035C296.432 146.384 297.266 146.463 298.054 146.254C298.841 146.046 299.517 145.568 299.932 144.924C300.347 144.28 300.467 143.524 300.265 142.822C299.206 139.12 297.259 132.315 295.896 127.55C295.09 124.734 291.966 123.083 288.808 123.74H288.807ZM307.232 122.569C306.686 120.662 304.51 119.575 302.37 120.14C300.232 120.707 298.94 122.711 299.485 124.619C300.741 129.007 302.895 136.537 304.151 140.926C304.697 142.833 306.873 143.92 309.013 143.355C311.151 142.788 312.443 140.784 311.898 138.876C310.642 134.488 308.488 126.958 307.232 122.569ZM316.183 116.486C312.973 117.394 311.05 120.431 311.877 123.32C312.959 127.1 314.407 132.164 315.489 135.944C316.295 138.76 319.419 140.41 322.577 139.753L316.184 116.485L316.183 116.486Z" fill="#FFF5DE"/>
<path fill-rule="evenodd" clip-rule="evenodd" d="M325.504 144.113C325.376 143.649 325.069 143.254 324.651 143.016C324.231 142.777 323.735 142.715 323.271 142.843C317.888 144.322 301.631 148.789 296.249 150.268C295.785 150.395 295.39 150.702 295.152 151.12C294.913 151.54 294.852 152.035 294.979 152.5C295.107 152.964 295.414 153.359 295.832 153.598C296.251 153.836 296.747 153.898 297.212 153.77C302.594 152.291 318.852 147.825 324.234 146.346C324.699 146.218 325.093 145.911 325.331 145.493C325.569 145.074 325.631 144.578 325.504 144.113ZM316.404 110.995C316.276 110.531 315.969 110.135 315.551 109.897C315.132 109.659 314.636 109.597 314.171 109.725C308.789 111.204 292.531 115.67 287.149 117.149C286.684 117.277 286.29 117.584 286.052 118.002C285.814 118.421 285.752 118.918 285.879 119.382C286.007 119.847 286.314 120.241 286.733 120.479C287.153 120.717 287.648 120.779 288.113 120.652C293.496 119.173 309.753 114.706 315.135 113.227C315.6 113.1 315.994 112.792 316.232 112.373C316.471 111.954 316.532 111.459 316.405 110.994L316.404 110.995Z" fill="#834202"/>
<path fill-rule="evenodd" clip-rule="evenodd" d="M270.253 76.6609C270.253 76.6609 270.372 74.6718 270.253 76.6609C269.585 77.6309 285.867 88.0813 293.46 84.4846C294.116 82.3439 294.368 80.244 294.136 78.348C293.505 73.197 277.964 67.7147 274.609 69.4644C272.473 70.5787 270.977 74.3896 270.253 76.6599V76.6609Z" fill="#FFC4CD"/>
<path fill-rule="evenodd" clip-rule="evenodd" d="M287.289 85.0442L290.485 77.7139C290.6 77.4495 290.478 77.1411 290.214 77.0262C289.95 76.9112 289.641 77.0324 289.526 77.2958L286.231 84.8561C286.586 84.9282 286.939 84.992 287.288 85.0442H287.289ZM280.484 83.0405L284.117 74.7036C284.232 74.4392 284.111 74.1308 283.846 74.0159C283.582 73.9009 283.274 74.0221 283.159 74.2866L279.522 82.6308C279.839 82.7708 280.16 82.9077 280.484 83.0405ZM274.23 79.887L277.931 71.3965C278.046 71.132 277.925 70.8237 277.661 70.7087C277.396 70.5937 277.088 70.715 276.973 70.9794L273.332 79.3309C273.617 79.5128 273.917 79.6988 274.23 79.888V79.887Z" fill="#E36F8A"/>
<path fill-rule="evenodd" clip-rule="evenodd" d="M157.85 208.388L158.266 230.953L246.657 231.327L237.221 199.71L157.851 208.389L157.85 208.388Z" fill="#94A2D0"/>
<path fill-rule="evenodd" clip-rule="evenodd" d="M160.623 108.351C162.366 110.165 163.641 112.351 165.824 113.706C173.735 118.617 179.388 104.653 184.012 100.393C191.451 100.914 205.054 100.097 215.283 102.529C223.842 104.565 236.408 111.353 244.214 115.441C248.976 104.239 254.519 93.4042 259.233 82.2065C270.864 85.752 280.247 92.775 292.054 95.7874C288.804 101.758 274.938 148.496 265.961 157.851C254.471 169.826 238.091 165.799 234.643 163.662C235.11 168.466 246.711 205.016 244.214 208.088C234.22 220.382 168.82 227.36 155.648 218C150.738 214.511 152.86 190.375 151.019 173.902C142.841 181.616 139.317 184.173 118.986 183.724C110.631 183.54 73.8579 172.294 70.6919 170.961C71.0912 161.116 76.1167 140.255 81.8791 132.739C93.6726 136.709 110.377 137.607 124.339 140.102C130.861 128.917 143.91 113.21 160.624 108.352L160.623 108.351Z" fill="url(#paint11_linear_1527_8308)"/>
<path fill-rule="evenodd" clip-rule="evenodd" d="M150.826 174.081C142.783 181.654 139.157 184.168 118.985 183.723C110.63 183.539 73.8568 172.293 70.6908 170.96L70.719 170.562C70.7702 169.843 70.8748 168.387 70.8873 168.252C77.8946 170.008 110.657 178.051 120.483 177.489C143.392 176.178 154.325 154.927 154.325 154.927C154.325 154.927 155.957 201.545 160.181 220.073C158.323 219.5 156.789 218.812 155.646 218C150.754 214.524 152.841 190.562 151.038 174.094L151.017 173.901L150.825 174.081H150.826ZM287.323 108.231C281.587 124.519 272.482 151.053 265.96 157.851C254.47 169.826 238.09 165.799 234.641 163.663C235.109 168.467 246.71 205.017 244.213 208.089C242.703 209.945 239.931 211.68 236.263 213.257C237.765 188.987 223.474 147.15 223.474 147.15C223.474 147.15 242.96 163.33 256.73 154.929C266.22 149.138 279.822 123.5 287.363 108.119L287.323 108.232V108.231Z" fill="url(#paint12_linear_1527_8308)"/>
<path fill-rule="evenodd" clip-rule="evenodd" d="M158.872 109.267C159.481 110.589 160.987 113.762 163.394 115.889C165.241 117.521 167.578 118.561 170.393 118.104C173.923 117.529 177.239 114.571 179.843 111.09C183.435 106.286 185.734 100.638 185.734 100.638C186.114 99.702 185.664 98.6348 184.728 98.2533C183.793 97.8728 182.724 98.3233 182.345 99.2578L176.913 108.898C174.912 111.574 172.519 114.05 169.805 114.492C167.727 114.831 166.151 113.642 164.961 112.283C163.519 110.632 162.614 108.645 162.195 107.736C161.772 106.819 160.685 106.418 159.768 106.84C158.851 107.262 158.45 108.349 158.872 109.267Z" fill="white"/>
</g>
<defs>
<linearGradient id="paint0_linear_1527_8308" x1="-18.3653" y1="7404.08" x2="-22.2503" y2="7539.77" gradientUnits="userSpaceOnUse">
<stop stop-color="#7D2CB3"/>
<stop offset="1" stop-color="#5E1342"/>
</linearGradient>
<linearGradient id="paint1_linear_1527_8308" x1="191.753" y1="59.0338" x2="191.753" y2="230.18" gradientUnits="userSpaceOnUse">
<stop stop-color="#8F3ECE"/>
<stop offset="1" stop-color="#721964"/>
</linearGradient>
<linearGradient id="paint2_linear_1527_8308" x1="51.8819" y1="172.601" x2="51.8819" y2="231.719" gradientUnits="userSpaceOnUse">
<stop stop-color="#7CE18A"/>
<stop offset="1" stop-color="#136D65"/>
</linearGradient>
<linearGradient id="paint3_linear_1527_8308" x1="319.971" y1="172.581" x2="319.971" y2="231.699" gradientUnits="userSpaceOnUse">
<stop stop-color="#7CE18A"/>
<stop offset="1" stop-color="#136D65"/>
</linearGradient>
<linearGradient id="paint4_linear_1527_8308" x1="115.787" y1="11.0226" x2="115.787" y2="65.0073" gradientUnits="userSpaceOnUse">
<stop stop-color="#FFDA74"/>
<stop offset="1" stop-color="#FF9226"/>
</linearGradient>
<linearGradient id="paint5_linear_1527_8308" x1="60.6078" y1="164.948" x2="60.6078" y2="179.511" gradientUnits="userSpaceOnUse">
<stop stop-color="#FFCD56"/>
<stop offset="1" stop-color="#FFA52F"/>
</linearGradient>
<linearGradient id="paint6_linear_1527_8308" x1="263.391" y1="2698.86" x2="262.982" y2="2706.56" gradientUnits="userSpaceOnUse">
<stop stop-color="#FFCD56"/>
<stop offset="1" stop-color="#FFA52F"/>
</linearGradient>
<linearGradient id="paint7_linear_1527_8308" x1="62.9295" y1="176.04" x2="61.0443" y2="209.973" gradientUnits="userSpaceOnUse">
<stop stop-color="#FFA52F"/>
<stop offset="0.2" stop-color="#FFC54E"/>
<stop offset="0.45" stop-color="#FFCD56"/>
<stop offset="0.75" stop-color="#FFC44D"/>
<stop offset="1" stop-color="#FFA52F"/>
</linearGradient>
<linearGradient id="paint8_linear_1527_8308" x1="299.096" y1="99.7908" x2="301.672" y2="114.123" gradientUnits="userSpaceOnUse">
<stop stop-color="#FFCD56"/>
<stop offset="1" stop-color="#FFA52F"/>
</linearGradient>
<linearGradient id="paint9_linear_1527_8308" x1="548.365" y1="2632.78" x2="550.128" y2="2640.29" gradientUnits="userSpaceOnUse">
<stop stop-color="#FFCD56"/>
<stop offset="1" stop-color="#FFA52F"/>
</linearGradient>
<linearGradient id="paint10_linear_1527_8308" x1="303.295" y1="123.969" x2="311.148" y2="157.034" gradientUnits="userSpaceOnUse">
<stop stop-color="#FFA52F"/>
<stop offset="0.2" stop-color="#FFC54E"/>
<stop offset="0.45" stop-color="#FFCD56"/>
<stop offset="0.75" stop-color="#FFC44D"/>
<stop offset="1" stop-color="#FFA52F"/>
</linearGradient>
<linearGradient id="paint11_linear_1527_8308" x1="180.889" y1="99.6801" x2="180.889" y2="225.263" gradientUnits="userSpaceOnUse">
<stop stop-color="#F76499"/>
<stop offset="1" stop-color="#A21F35"/>
</linearGradient>
<linearGradient id="paint12_linear_1527_8308" x1="178.519" y1="122.071" x2="178.519" y2="222.411" gradientUnits="userSpaceOnUse">
<stop stop-color="#CA1D6A"/>
<stop offset="1" stop-color="#83192B"/>
</linearGradient>
<clipPath id="clip0_1527_8308">
<rect width="375" height="233.71" fill="white"/>
</clipPath>
</defs>
</svg>
